<svg width="279" height="29" viewBox="0 0 279 29" fill="none" xmlns="http://www.w3.org/2000/svg">
<path d="M15.9599 9.02728C15.73 6.77866 13.8391 5.47548 11.0155 5.47548C8.03868 5.47548 6.26278 6.9192 6.26278 8.89951C6.23723 11.0843 8.5625 12.0041 10.7217 12.5152L13.1747 13.1285C17.0843 14.0483 20.8405 16.1053 20.8532 20.6537C20.8405 25.2531 17.212 28.3961 10.9389 28.3961C4.85739 28.3961 0.998967 25.4831 0.794547 20.2959H5.41955C5.62397 23.03 7.93647 24.3715 10.9006 24.3715C14.0052 24.3715 16.1388 22.864 16.1388 20.6153C16.1388 18.5839 14.2479 17.7023 11.4244 16.9741L8.46029 16.2075C4.14192 15.1088 1.48446 12.9368 1.48446 9.18059C1.47169 4.55559 5.58564 1.47652 11.0794 1.47652C16.6371 1.47652 20.4061 4.6067 20.4955 9.02728H15.9599ZM24.6121 1.83425H30.3869L38.1677 20.8453H38.4743L46.255 1.83425H52.0299V28H47.4943V9.99827H47.2643L40.0074 27.9233H36.6217L29.3648 9.93439H29.1476V28H24.6121V1.83425ZM60.0304 28H55.0093L64.2338 1.83425H70.0342L79.2586 28H74.2376L72.0656 21.5224H62.2024L60.0304 28ZM63.48 17.7407H70.788L67.2362 7.17472H67.0318L63.48 17.7407ZM82.2439 28V1.83425H92.0433C98.0609 1.83425 101.268 5.20718 101.268 10.2027C101.268 13.7545 99.6451 16.3864 96.5533 17.6257L102.226 28H96.9621L91.8133 18.405H86.9456V28H82.2439ZM86.9456 14.4955H91.3406C94.8796 14.4955 96.4639 12.9879 96.4639 10.2027C96.4639 7.41747 94.8796 5.76934 91.3278 5.76934H86.9456V14.4955ZM103.989 5.79489V1.83425H124.84V5.79489H116.766V28H112.09V5.79489H103.989ZM139.322 13.4862C138.913 11.8508 137.661 10.7776 135.361 10.7776C132.934 10.7776 131.222 12.0808 131.222 13.7162C131.222 15.0193 132.269 15.9137 134.569 16.4758L137.508 17.1913C141.008 18.0345 142.72 19.7721 142.72 22.5062C142.72 25.9047 139.961 28.4088 135.029 28.4088C130.634 28.4088 128.002 26.4413 127.491 22.864H130.736C131.094 24.7804 132.499 25.7003 134.978 25.7003C137.763 25.7003 139.526 24.5249 139.526 22.6851C139.526 21.3052 138.53 20.3854 136.307 19.8743L133.343 19.1844C129.919 18.3923 128.104 16.5269 128.104 13.895C128.104 10.5477 131.043 8.12016 135.361 8.12016C139.424 8.12016 141.979 10.2921 142.388 13.4862H139.322ZM158.881 19.951V8.37569H161.973V28H158.881V24.6782H158.677C157.757 26.6713 155.815 28.2555 152.851 28.2555C149.145 28.2555 146.488 25.828 146.488 20.8453V8.37569H149.605V20.6153C149.605 23.4517 151.369 25.2659 153.873 25.2659C156.096 25.2659 158.881 23.605 158.881 19.951ZM166.686 28V8.37569H169.804V28H166.686ZM166.073 3.06077C166.073 1.91091 167.07 0.99102 168.271 0.99102C169.446 0.99102 170.442 1.91091 170.442 3.06077C170.442 4.21063 169.446 5.13052 168.271 5.13052C167.07 5.13052 166.073 4.21063 166.073 3.06077ZM183.077 8.37569V10.982H178.937V22.3529C178.937 24.8826 180.189 25.2914 181.518 25.2914C182.08 25.2914 182.898 25.2403 183.358 25.2148V28.1022C182.872 28.1789 182.106 28.2555 181.186 28.2555C178.579 28.2555 175.82 26.6202 175.82 23.1706V10.982H172.856V8.37569H175.82V3.67403H178.937V8.37569H183.077ZM194.849 28.4088C189.176 28.4088 185.676 24.3715 185.676 18.3412C185.676 12.3108 189.227 8.12016 194.542 8.12016C198.682 8.12016 203.026 10.6499 203.026 17.9323V19.2355H188.806C188.946 23.375 191.361 25.6492 194.849 25.6492C197.2 25.6492 198.682 24.6271 199.397 23.4006H202.719C201.799 26.3902 198.886 28.4088 194.849 28.4088ZM188.806 16.578H199.857C199.857 13.3073 197.787 10.8798 194.568 10.8798C191.157 10.8798 189.01 13.5628 188.806 16.578ZM225.304 1.83425V28H222.034V5.23273H221.88L215.518 9.44889V6.17818L222.034 1.83425H225.304ZM240.585 28.3577C234.785 28.3577 231.437 23.4772 231.437 14.9171C231.437 6.4337 234.836 1.47652 240.585 1.47652C246.334 1.47652 249.733 6.4337 249.733 14.9171C249.733 23.4772 246.385 28.3577 240.585 28.3577ZM234.606 14.9171C234.606 21.6885 236.803 25.4703 240.585 25.4703C244.367 25.4703 246.564 21.6885 246.564 14.9171C246.564 8.14572 244.341 4.31284 240.585 4.31284C236.829 4.31284 234.606 8.14572 234.606 14.9171ZM255.158 28.2044C253.881 28.2044 252.808 27.1568 252.833 25.8791C252.808 24.6015 253.881 23.5539 255.158 23.5539C256.436 23.5539 257.484 24.6015 257.484 25.8791C257.484 27.1568 256.436 28.2044 255.158 28.2044ZM269.708 28.3577C263.908 28.3577 260.56 23.4772 260.56 14.9171C260.56 6.4337 263.959 1.47652 269.708 1.47652C275.457 1.47652 278.856 6.4337 278.856 14.9171C278.856 23.4772 275.509 28.3577 269.708 28.3577ZM263.729 14.9171C263.729 21.6885 265.926 25.4703 269.708 25.4703C273.49 25.4703 275.687 21.6885 275.687 14.9171C275.687 8.14572 273.464 4.31284 269.708 4.31284C265.952 4.31284 263.729 8.14572 263.729 14.9171Z" fill="black"/>
</svg>
