<svg width="120" height="29" viewBox="0 0 120 29" fill="none" xmlns="http://www.w3.org/2000/svg">
<path d="M105.79 0.00823975C97.9421 0.00823975 91.5811 6.3392 91.5811 14.1469C91.5811 21.9546 97.9437 28.2855 105.79 28.2855C113.637 28.2855 120 21.9546 120 14.1469C120 6.3392 113.637 0.00823975 105.79 0.00823975ZM105.79 22.4743C101.169 22.4743 97.4214 18.747 97.4214 14.1469C97.4214 9.54676 101.167 5.81946 105.79 5.81946C110.414 5.81946 114.16 9.54676 114.16 14.1469C114.16 18.747 110.414 22.4743 105.79 22.4743Z" fill="white"/>
<path d="M86.0509 0.539536C80.1708 0.539536 75.4033 4.74863 75.4033 10.5994V27.7559H81.2403V10.5994C81.2403 7.95618 83.3944 6.34746 86.0509 6.34746H89.9958V0.539536H86.0509Z" fill="white"/>
<path d="M21.0613 11.5383H11.4319V16.5839H20.8739C26.1935 16.5839 29.1237 12.2709 29.1237 8.29113C29.1237 4.31139 25.8901 0 21.0613 0H14.1597C5.67449 0 0 6.71541 0 14.1387C0 21.5619 5.67449 27.7427 14.158 27.7427H27.8833V21.9315H14.158C9.21152 21.9315 5.84032 18.4665 5.84032 14.1387C5.84032 9.81076 9.21152 5.80462 14.158 5.80462L21.0596 5.81947C22.5935 5.81947 23.7559 7.34075 23.7559 8.67888C23.7559 10.1061 22.5935 11.5383 21.0596 11.5383H21.0613Z" fill="white"/>
<path d="M60.5523 0C57.2972 0 54.9839 1.29028 53.2278 3.6151C51.8515 1.30018 48.933 0 46.2848 0C43.7842 0 40.7015 0.890988 39.3136 3.2686V0.539542H33.4766V10.5945V27.751H39.3136V12.4309C39.3136 8.00074 41.2736 5.80792 44.4641 5.80792C46.2831 5.80792 48.9347 6.63621 48.9347 11.167V27.751H54.7717V12.0019C54.7717 7.1543 57.3502 5.80792 60.0067 5.80792C62.4294 5.80792 64.3928 7.47275 64.3928 11.0994V27.751H70.2298V10.0533C70.2298 3.84775 65.5204 0 60.5523 0Z" fill="white"/>
</svg>
