<svg width="16" height="16" viewBox="0 0 16 16" fill="none" xmlns="http://www.w3.org/2000/svg">
<g clip-path="url(#clip0_218_349)">
<path d="M6.7954 13.0609C6.9104 13.2176 7.0879 13.3163 7.28206 13.3317C7.29915 13.333 7.31665 13.3338 7.33331 13.3338C7.50915 13.3338 7.67915 13.2646 7.80456 13.1384L11.6379 9.30505C11.8983 9.04422 11.8983 8.62297 11.6379 8.36255C11.3771 8.10213 10.9558 8.10213 10.6954 8.36255L7.41123 11.6467L6.03706 9.77339C5.81915 9.47672 5.40165 9.41214 5.10498 9.63005C4.80831 9.84797 4.74373 10.2655 4.96165 10.5621L6.79498 13.0613L6.7954 13.0609Z" fill="#E7E7E7"/>
<path d="M14 2H13.3333V0.666667C13.3333 0.29875 13.0346 0 12.6667 0H12C11.6321 0 11.3333 0.29875 11.3333 0.666667V2H4.66667V0.666667C4.66667 0.29875 4.36792 0 4 0H3.33333C2.96542 0 2.66667 0.29875 2.66667 0.666667V2H2C0.897083 2 0 2.8975 0 4V14C0 15.1025 0.897083 16 2 16H14C15.1025 16 16 15.1025 16 14V4C16 2.8975 15.1025 2 14 2ZM14.6667 14C14.6667 14.3675 14.3675 14.6667 14 14.6667H2C1.6325 14.6667 1.33333 14.3675 1.33333 14V6.69333H14.6667V14Z" fill="#E7E7E7"/>
</g>
<defs>
<clipPath id="clip0_218_349">
<rect width="16" height="16" fill="white"/>
</clipPath>
</defs>
</svg>
