<svg width="15" height="11" viewBox="0 0 15 11" fill="none" xmlns="http://www.w3.org/2000/svg">
<path fill-rule="evenodd" clip-rule="evenodd" d="M0 0.935C0 0.418614 0.418614 0 0.935 0H14.065C14.5814 0 15 0.418614 15 0.935C15 1.45139 14.5814 1.87 14.065 1.87H0.934999C0.418613 1.87 0 1.45139 0 0.935ZM0 5.435C0 4.91861 0.418614 4.5 0.935 4.5H14.065C14.5814 4.5 15 4.91861 15 5.435C15 5.95139 14.5814 6.37 14.065 6.37H0.934999C0.418613 6.37 0 5.95139 0 5.435ZM0.933333 9.13334C0.417867 9.13334 0 9.55121 0 10.0667C0 10.5821 0.417867 11 0.933333 11H14.0667C14.5821 11 15 10.5821 15 10.0667C15 9.55121 14.5821 9.13334 14.0667 9.13334H0.933333Z" fill="#777777"/>
</svg>
