<svg width="16" height="16" viewBox="0 0 16 16" fill="none" xmlns="http://www.w3.org/2000/svg">
<g clip-path="url(#clip0_218_354)">
<path d="M14.7917 1.20821C14.0346 0.450714 12.9746 0.00863193 11.9042 -0.000118052C10.8054 -0.00886803 9.73045 0.438214 8.95045 1.20821L6.99212 3.16654C7.27003 3.11988 7.55253 3.09571 7.83837 3.09571C8.39628 3.09571 8.94545 3.18654 9.4717 3.36446C9.61587 3.41321 9.75628 3.46821 9.8942 3.52904L10.5825 2.84071C10.9038 2.51863 11.3496 2.32529 11.8042 2.30904C12.305 2.29071 12.805 2.48654 13.1596 2.84071C13.87 3.55112 13.87 4.70696 13.1596 5.41737L11.7475 6.82903L9.45045 9.12653C9.00378 9.57278 8.32462 9.75903 7.71295 9.60361C7.1792 9.46778 6.71712 9.07695 6.49545 8.5732C6.4692 8.51361 6.44628 8.45236 6.42712 8.39028L4.71795 10.1103C4.87753 10.3486 5.06212 10.5699 5.2667 10.7711C5.72503 11.2211 6.28587 11.5686 6.89712 11.7686C7.00712 11.8044 7.11878 11.8357 7.2317 11.8615C8.54795 12.1661 10.0025 11.7753 10.9879 10.8511C11.02 10.8211 14.7921 7.05028 14.7921 7.05028C16.4025 5.43945 16.4025 2.81946 14.7921 1.20863L14.7917 1.20821ZM6.52837 12.6349C6.3842 12.5861 6.24378 12.5311 6.10587 12.4707C6.10587 12.4707 5.41753 13.159 5.41753 13.1594C5.09462 13.4824 4.64712 13.6757 4.19045 13.6915C3.69253 13.7086 3.19212 13.5136 2.84045 13.1594C2.13003 12.449 2.13003 11.2932 2.84045 10.5828L6.73045 6.73237C6.81087 6.6507 6.9092 6.58862 7.01128 6.53695C7.47837 6.3007 8.04878 6.27904 8.53253 6.47862C9.03086 6.68362 9.44087 7.12737 9.58628 7.64862C9.58753 7.6532 9.58878 7.65737 9.59003 7.66195C9.59003 7.66195 11.3167 5.93529 11.3175 5.93445C11.3634 5.88862 10.8179 5.30362 10.7625 5.2482C10.5442 5.03154 10.3013 4.83904 10.0409 4.67529C9.52045 4.34737 8.92795 4.13196 8.31587 4.06071C7.08503 3.91779 5.79212 4.36071 4.91795 5.24154L1.20837 8.94986C-0.402464 10.5607 -0.402464 13.1807 1.20837 14.7915C1.97003 15.5536 3.03753 15.9961 4.1142 15.9998C5.20128 16.0036 6.28087 15.5598 7.04962 14.7915L9.00795 12.8336C8.73003 12.8803 8.44753 12.904 8.1617 12.904C7.6042 12.904 7.05462 12.8136 6.52837 12.6353V12.6349Z" fill="#E7E7E7"/>
</g>
<defs>
<clipPath id="clip0_218_354">
<rect width="16" height="16" fill="white"/>
</clipPath>
</defs>
</svg>
