<svg width="13" height="13" viewBox="0 0 13 13" fill="none" xmlns="http://www.w3.org/2000/svg">
<path d="M5.23209 10.4601C6.39396 10.4601 7.52266 10.0725 8.43943 9.35837L11.898 12.8174C12.1563 13.0669 12.5679 13.0598 12.8174 12.8015C13.0609 12.5492 13.0609 12.1497 12.8174 11.8978L9.35891 8.43876C11.1305 6.15768 10.7178 2.872 8.4374 1.10016C6.15665 -0.672019 2.87144 -0.259278 1.09986 2.0218C-0.671727 4.30288 -0.259384 7.58856 2.02137 9.3604C2.93949 10.0738 4.0692 10.4608 5.23209 10.4601V10.4601ZM2.45301 2.45181C3.98795 0.916645 6.47589 0.916645 8.01084 2.45181C9.54544 3.98698 9.54578 6.47528 8.01084 8.01044C6.47623 9.54527 3.98795 9.54527 2.45335 8.01044C0.918739 6.48679 0.909598 4.00695 2.43337 2.47213C2.4398 2.46535 2.44657 2.45858 2.45335 2.45181H2.45301Z" fill="black"/>
</svg>
