<svg width="16" height="16" viewBox="0 0 16 16" fill="none" xmlns="http://www.w3.org/2000/svg">
	<path fill-rule="evenodd" clip-rule="evenodd" d="M8 16C12.4183 16 16 12.4183 16 8C16 3.58172 12.4183 0 8 0C3.58172 0 0 3.58172 0 8C0 12.4183 3.58172 16 8 16ZM9.0065 4.1802C9.0065 3.52772 8.47878 3 7.82629 3C7.17381 3 6.64609 3.52772 6.64609 4.1802C6.64609 4.83269 7.17381 5.3604 7.82629 5.3604C8.47878 5.3604 9.0065 4.83269 9.0065 4.1802ZM6.90177 6.10084H8.90013H8.90218V11.5948H9.66921V13H6.2002V11.5948H6.97131V7.50399H6.90177C6.51519 7.50399 6.2002 7.189 6.2002 6.80241C6.2002 6.41583 6.51314 6.10084 6.90177 6.10084Z" fill="#B3B3B3"/>
</svg>
