<svg width="15" height="14" viewBox="0 0 15 14" fill="none" xmlns="http://www.w3.org/2000/svg">
<g clip-path="url(#clip0_87_1923)">
<mask id="mask0_87_1923" style="mask-type:luminance" maskUnits="userSpaceOnUse" x="0" y="0" width="15" height="14">
<path d="M0.5 0H14.5V14H0.5V0Z" fill="white"/>
</mask>
<g mask="url(#mask0_87_1923)">
<path d="M7.52181 0C9.35227 0.00261682 11.1077 0.727477 12.4065 2.01757V0.697819C12.4065 0.312274 12.7188 0 13.1044 0C13.4899 0 13.8022 0.312274 13.8022 0.697819V3.4891C13.8022 3.87464 13.4899 4.18692 13.1044 4.18692H10.3131C9.92754 4.18692 9.61526 3.87464 9.61526 3.4891C9.61526 3.10355 9.92754 2.79128 10.3131 2.79128H11.2089C9.23408 1.05414 6.31458 0.930717 4.20019 2.49558C2.08623 4.06044 1.3509 6.88878 2.43558 9.28492C3.52025 11.6811 6.13009 12.9951 8.70112 12.4391C11.2717 11.883 13.1061 9.6081 13.1039 6.97819C13.1039 6.59265 13.4162 6.28037 13.8017 6.28037C14.1873 6.28037 14.5 6.59265 14.5 6.97819C14.5 9.80044 12.7999 12.3449 10.1923 13.4252C7.58461 14.5055 4.58311 13.9084 2.58735 11.9126C0.591589 9.91689 -0.00548267 6.91539 1.07483 4.30773C2.15514 1.70006 4.69956 0 7.52181 0Z" fill="white"/>
</g>
</g>
<defs>
<clipPath id="clip0_87_1923">
<rect width="14" height="14" fill="white" transform="matrix(-1 0 0 1 14.5 0)"/>
</clipPath>
</defs>
</svg>
