<svg width="14" height="14" viewBox="0 0 14 14" fill="none" xmlns="http://www.w3.org/2000/svg">
<g clip-path="url(#clip0_30_1608)">
<path d="M13.9633 5.28991C13.8712 4.99401 13.6197 4.78445 13.3233 4.75671L9.28197 4.37362L7.685 0.471726C7.56719 0.184974 7.2987 0 7.00008 0C6.70145 0 6.43296 0.184974 6.3157 0.471726L4.71846 4.37362L0.676596 4.75671C0.380161 4.7853 0.129479 4.99458 0.0366038 5.28991C-0.0554498 5.58552 0.0294806 5.9103 0.253587 6.11529L3.30862 8.91076L2.40781 13.0505C2.34205 13.3547 2.4552 13.6698 2.69712 13.8522C2.82725 13.9508 2.98013 14 3.13355 14C3.26533 14 3.39711 13.9634 3.51519 13.8899L7.00008 11.7157L10.4844 13.8899C10.74 14.0491 11.0614 14.0349 11.3028 13.8522C11.545 13.6695 11.6581 13.3547 11.5921 13.0505L10.6913 8.91076L13.7463 6.11529C13.9704 5.9103 14.0556 5.58638 13.9633 5.28991Z" fill="#9B9B9B"/>
</g>
<defs>
<clipPath id="clip0_30_1608">
<rect width="14" height="14" fill="white"/>
</clipPath>
</defs>
</svg>
