<svg width="16" height="18" viewBox="0 0 16 18" fill="none" xmlns="http://www.w3.org/2000/svg">
<g clip-path="url(#clip0_218_360)">
<path d="M0.390746 11.7671H1.63165V6.37298C1.63165 3.72396 3.73403 1.51815 6.51096 1.06213C6.50621 1.03331 6.50432 1.00415 6.50534 0.975021C6.50534 0.715976 6.61824 0.467541 6.81919 0.284369C7.02015 0.101196 7.29271 -0.00170898 7.5769 -0.00170898C7.8611 -0.00170898 8.13366 0.101196 8.33461 0.284369C8.53557 0.467541 8.64847 0.715976 8.64847 0.975021C8.64931 1.00415 8.64743 1.03329 8.64285 1.06213C11.4184 1.51815 13.5264 3.72396 13.5264 6.37298V11.7671H14.7617C14.8137 11.767 14.8653 11.7764 14.9134 11.7945C14.9615 11.8126 15.0052 11.8392 15.042 11.8728C15.0788 11.9064 15.108 11.9462 15.1279 11.99C15.1478 12.0339 15.158 12.0809 15.158 12.1283V14.0498C15.158 14.0972 15.1478 14.1442 15.1279 14.188C15.108 14.2319 15.0788 14.2717 15.042 14.3053C15.0052 14.3388 14.9615 14.3654 14.9134 14.3836C14.8653 14.4017 14.8137 14.411 14.7617 14.411H0.396369C0.344313 14.411 0.292758 14.4017 0.244655 14.3836C0.196552 14.3654 0.152845 14.3388 0.116036 14.3053C0.0792265 14.2717 0.0500374 14.2319 0.0301371 14.188C0.0102377 14.1442 1.81198e-05 14.0972 6.48499e-05 14.0498V12.1283C-0.000871658 12.0811 0.0085535 12.0341 0.0277853 11.9903C0.0470161 11.9464 0.0756674 11.9065 0.112059 11.8728C0.148449 11.8392 0.191845 11.8125 0.239701 11.7943C0.287559 11.7762 0.338911 11.7669 0.390746 11.7671Z" fill="#E7E7E7"/>
<path d="M7.64228 17.9999C6.36905 17.9999 5.33754 16.9393 5.33754 15.625H9.94702C9.94702 16.938 8.91551 17.9999 7.64228 17.9999Z" fill="#E7E7E7"/>
</g>
<defs>
<clipPath id="clip0_218_360">
<rect width="15.1579" height="18" fill="white" transform="matrix(-1 0 0 1 15.158 0)"/>
</clipPath>
</defs>
</svg>
