<svg width="15" height="15" viewBox="0 0 15 15" fill="none" xmlns="http://www.w3.org/2000/svg">
<g clip-path="url(#clip0_293_1360)">
<path d="M5.77045 11.9227C7.05187 11.9227 8.29671 11.5053 9.30781 10.7363L13.1222 14.4609C13.4071 14.7296 13.8611 14.722 14.1363 14.4438C14.4048 14.1722 14.4048 13.742 14.1363 13.4707L10.3219 9.74614C12.2758 7.28994 11.8206 3.75203 9.30557 1.84416C6.79014 -0.0640631 3.1669 0.380364 1.21303 2.83656C-0.740845 5.29276 -0.286074 8.83067 2.22936 10.7385C3.24195 11.5067 4.4879 11.9234 5.77045 11.9227V11.9227ZM2.70541 3.29958C4.39829 1.64656 7.14223 1.64656 8.83511 3.29958C10.5276 4.9526 10.528 7.63192 8.83511 9.28494C7.1426 10.9376 4.39829 10.9376 2.70578 9.28494C1.01327 7.64432 1.00319 4.97411 2.68375 3.32146C2.69085 3.31416 2.69832 3.30687 2.70578 3.29958H2.70541Z" fill="#333333"/>
</g>
<defs>
<clipPath id="clip0_293_1360">
<rect width="14.3376" height="14" fill="white" transform="translate(0 0.658539)"/>
</clipPath>
</defs>
</svg>
