<svg width="16" height="16" viewBox="0 0 16 16" fill="none" xmlns="http://www.w3.org/2000/svg">
	<g clip-path="url(#clip0_499_2625)">
		<path d="M15.958 6.04561C15.8528 5.70744 15.5654 5.46794 15.2266 5.43625L10.608 4.99842L8.78286 0.539116C8.64822 0.211399 8.34138 0 8.00009 0C7.6588 0 7.35196 0.211399 7.21795 0.539116L5.39253 4.99842L0.773252 5.43625C0.43447 5.46892 0.147976 5.70809 0.0418329 6.04561C-0.0633712 6.38345 0.0336921 6.75463 0.289814 6.9889L3.78128 10.1837L2.75178 14.9149C2.67663 15.2625 2.80595 15.6226 3.08242 15.831C3.23115 15.9438 3.40586 16 3.5812 16C3.73181 16 3.88241 15.9581 4.01736 15.8742L8.00009 13.3893L11.9822 15.8742C12.2743 16.0562 12.6416 16.0398 12.9174 15.831C13.1942 15.6223 13.3235 15.2625 13.2481 14.9149L12.2186 10.1837L15.7101 6.9889C15.9662 6.75463 16.0636 6.38443 15.958 6.04561V6.04561Z" fill="#B3B3B3"/>
	</g>
	<defs>
		<clipPath id="clip0_499_2625">
			<rect width="16" height="16" fill="white"/>
		</clipPath>
	</defs>
</svg>
