<svg width="19" height="16" viewBox="0 0 19 16" fill="none" xmlns="http://www.w3.org/2000/svg">
<g clip-path="url(#clip0_477_2052)">
<path d="M2 0C0.903333 0 0 0.903333 0 2V14C0 15.0967 0.903333 16 2 16H16.6667C17.7633 16 18.6667 15.0967 18.6667 14V4.66667C18.6667 3.57 17.7633 2.66667 16.6667 2.66667H9.65611L8.19889 0.824444C7.86722 0.405 7.34555 0 6.66611 0L2 0ZM2 1.33333H6.66667C6.81444 1.33333 6.97222 1.42333 7.15389 1.65222L8.81 3.74722C8.93667 3.90722 9.12944 4 9.33333 4H16.6667C17.0428 4 17.3333 4.29056 17.3333 4.66667V14C17.3333 14.3811 17.0478 14.6667 16.6667 14.6667H2C1.61944 14.6667 1.33333 14.3811 1.33333 14V2C1.33333 1.61889 1.61889 1.33333 2 1.33333Z" fill="black"/>
<path d="M9.33333 6C9.15667 6 8.98722 6.07056 8.86222 6.19556C8.73722 6.32056 8.66667 6.49 8.66667 6.66667V8.66667H6.66667C6.49 8.66667 6.32056 8.73722 6.19556 8.86222C6.07056 8.98722 6 9.15667 6 9.33333C6 9.51 6.07056 9.67944 6.19556 9.80444C6.32056 9.92944 6.49 10 6.66667 10H8.66667V12C8.66667 12.1767 8.73722 12.3461 8.86222 12.4711C8.98722 12.5961 9.15667 12.6667 9.33333 12.6667C9.51 12.6667 9.67944 12.5961 9.80444 12.4711C9.92944 12.3461 10 12.1767 10 12V10H12C12.1767 10 12.3461 9.92944 12.4711 9.80444C12.5961 9.67944 12.6667 9.51 12.6667 9.33333C12.6667 9.15667 12.5961 8.98722 12.4711 8.86222C12.3461 8.73722 12.1767 8.66667 12 8.66667H10V6.66667C10 6.49 9.92944 6.32056 9.80444 6.19556C9.67944 6.07056 9.51 6 9.33333 6Z" fill="black"/>
</g>
<defs>
<clipPath id="clip0_477_2052">
<rect width="18.6667" height="16" fill="white"/>
</clipPath>
</defs>
</svg>
