<svg width="17" height="17" viewBox="0 0 17 17" fill="none" xmlns="http://www.w3.org/2000/svg">
<g clip-path="url(#clip0_218_363)">
<path d="M8.15791 0C7.20856 0 6.28053 0.262337 5.49118 0.753837C4.70182 1.24534 4.08659 1.94393 3.72329 2.76126C3.35999 3.57859 3.26493 4.47797 3.45014 5.34564C3.63535 6.21332 4.09251 7.01034 4.7638 7.6359C5.43509 8.26146 6.29037 8.68747 7.22148 8.86006C8.15259 9.03265 9.11771 8.94407 9.99479 8.60552C10.8719 8.26697 11.6215 7.69366 12.149 6.95807C12.6764 6.22249 12.9579 5.35768 12.9579 4.473C12.9565 3.28709 12.4504 2.15011 11.5505 1.31153C10.6506 0.472961 9.43053 0.00128631 8.15791 0Z" fill="#E7E7E7"/>
<path d="M14.1299 11.8679C12.8157 10.6247 11.074 9.93994 9.22463 9.93994H7.0913C5.24241 9.93994 3.50019 10.6247 2.18606 11.8679C0.884424 13.091 0.15528 14.7446 0.157966 16.4672C0.157966 16.599 0.214156 16.7254 0.314176 16.8186C0.414195 16.9119 0.549851 16.9642 0.6913 16.9642H15.6246C15.7661 16.9642 15.9017 16.9119 16.0018 16.8186C16.1018 16.7254 16.158 16.599 16.158 16.4672C16.1607 14.7446 15.4315 13.091 14.1299 11.8679Z" fill="#E7E7E7"/>
</g>
<defs>
<clipPath id="clip0_218_363">
<rect width="16" height="16.9643" fill="white" transform="translate(0.157959)"/>
</clipPath>
</defs>
</svg>
