<svg width="16" height="16" viewBox="0 0 16 16" fill="none" xmlns="http://www.w3.org/2000/svg">
<path d="M15.2255 13.9033L12.3223 10.9988C14.4946 8.09584 13.9023 3.98146 10.9993 1.80914C8.09633 -0.36319 3.98195 0.229132 1.80963 3.13212C-0.362702 6.03511 0.229621 10.1495 3.13261 12.3218C5.46453 14.0668 8.66737 14.0668 10.9993 12.3218L13.9038 15.2263C14.2688 15.5912 14.8605 15.5912 15.2255 15.2263C15.5905 14.8613 15.5905 14.2695 15.2255 13.9045L15.2255 13.9033ZM7.09016 11.7612C4.51013 11.7612 2.41862 9.66971 2.41862 7.08968C2.41862 4.50964 4.51013 2.41813 7.09016 2.41813C9.6702 2.41813 11.7617 4.50964 11.7617 7.08968C11.759 9.66855 9.66906 11.7585 7.09016 11.7612Z" fill="#5A2CCE"/>
</svg>
