<svg width="38" height="48" viewBox="0 0 38 48" fill="none" xmlns="http://www.w3.org/2000/svg">
<g clip-path="url(#clip0_274_1685)">
<path d="M36.8203 21.1556C37.2122 21.1556 37.53 20.8378 37.53 20.445V9.30375C37.53 8.40281 36.7969 7.67062 35.8959 7.67062H33.1106V5.46938C33.1106 4.5675 32.3784 3.83531 31.4766 3.83531H28.5994V1.63406C28.5994 0.733125 27.8663 0 26.9653 0H7.36125C6.96937 0 6.65063 0.317813 6.65063 0.709688C6.65063 1.10156 6.96844 1.42031 7.36125 1.42031H26.9672C27.0844 1.42031 27.18 1.51594 27.18 1.63313V38.6963C27.18 38.8134 27.0844 38.9091 26.9672 38.9091H1.63406C1.51688 38.9091 1.42125 38.8134 1.42125 38.6963V1.63406C1.42125 1.51688 1.51688 1.42125 1.63406 1.42125H4.52063C4.9125 1.42125 5.23031 1.10344 5.23031 0.710625C5.23031 0.317813 4.9125 0.0009375 4.52063 0.0009375H1.63406C0.733125 0 0 0.733125 0 1.63406V38.6972C0 39.5981 0.733125 40.3303 1.63406 40.3303H4.51219V42.5316C4.51219 43.4334 5.24438 44.1656 6.14437 44.1656H8.93062V46.3669C8.93062 47.2678 9.66375 48.0009 10.5638 48.0009H35.8969C36.7978 48.0009 37.5309 47.2678 37.5309 46.3669V23.2866C37.5309 22.8947 37.2131 22.5769 36.8213 22.5769C36.4294 22.5769 36.1106 22.8947 36.1106 23.2866V46.3669C36.1106 46.4841 36.015 46.5797 35.8978 46.5797H10.5638C10.4466 46.5797 10.3509 46.4841 10.3509 46.3669V44.1656H31.4775C32.3794 44.1656 33.1116 43.4334 33.1116 42.5316V32.7094C33.1116 32.3175 32.7937 31.9988 32.4009 31.9988C32.0081 31.9988 31.6912 32.3175 31.6912 32.7094V42.5316C31.6912 42.6488 31.5966 42.7444 31.4784 42.7444H6.14437C6.02719 42.7444 5.93156 42.6488 5.93156 42.5316V40.3303H26.9672C27.8681 40.3303 28.6012 39.5972 28.6012 38.6972V5.25563H31.4784C31.5966 5.25563 31.6912 5.35125 31.6912 5.46844V29.8669C31.6912 30.2597 32.0091 30.5766 32.4009 30.5766C32.7928 30.5766 33.1116 30.2597 33.1116 29.8669V9.09H35.8969C36.0141 9.09 36.1097 9.18563 36.1097 9.30281V20.4441C36.1097 20.8359 36.4275 21.1547 36.8203 21.1547V21.1556Z" fill="#ABABAB"/>
<path d="M18.3075 7.03125C18.3075 4.82156 16.5094 3.02344 14.2997 3.02344C12.09 3.02344 10.2919 4.82156 10.2919 7.03125C10.2919 9.24094 12.09 11.0381 14.2997 11.0381C16.5094 11.0381 18.3075 9.24094 18.3075 7.03125ZM11.7131 7.03125C11.7131 5.60437 12.8737 4.44469 14.2997 4.44469C15.7256 4.44469 16.8862 5.60531 16.8862 7.03125C16.8862 8.45719 15.7256 9.61781 14.2997 9.61781C12.8737 9.61781 11.7131 8.45719 11.7131 7.03125Z" fill="#ABABAB"/>
<path d="M23.9916 7.74094C24.3844 7.74094 24.7022 7.42313 24.7022 7.03125C24.7022 6.63938 24.3844 6.32063 23.9916 6.32063H20.6616C20.2697 6.32063 19.9519 6.63844 19.9519 7.03125C19.9519 7.42406 20.2697 7.74094 20.6616 7.74094H23.9916Z" fill="#ABABAB"/>
<path d="M7.93967 6.32063H4.60967C4.2178 6.32063 3.89905 6.63844 3.89905 7.03125C3.89905 7.42406 4.21686 7.74094 4.60967 7.74094H7.93967C8.33155 7.74094 8.64936 7.42313 8.64936 7.03125C8.64936 6.63938 8.33155 6.32063 7.93967 6.32063Z" fill="#ABABAB"/>
<path d="M5.54062 13.7728C5.54062 14.1647 5.85843 14.4825 6.25031 14.4825H22.35C22.7419 14.4825 23.0606 14.1647 23.0606 13.7728C23.0606 13.3809 22.7428 13.0622 22.35 13.0622H6.25124C5.85937 13.0622 5.54156 13.38 5.54156 13.7728H5.54062Z" fill="#ABABAB"/>
<path d="M22.35 16.5066H6.25125C5.85938 16.5066 5.54156 16.8244 5.54156 17.2162C5.54156 17.6081 5.85938 17.9259 6.25125 17.9259H22.35C22.7428 17.9259 23.0606 17.6081 23.0606 17.2162C23.0606 16.8244 22.7428 16.5066 22.35 16.5066Z" fill="#ABABAB"/>
<path d="M22.35 19.95H6.25125C5.85938 19.95 5.54156 20.2678 5.54156 20.6597C5.54156 21.0516 5.85938 21.3703 6.25125 21.3703H22.35C22.7428 21.3703 23.0606 21.0525 23.0606 20.6597C23.0606 20.2669 22.7428 19.95 22.35 19.95Z" fill="#ABABAB"/>
<path d="M22.35 23.3934H6.25125C5.85938 23.3934 5.54156 23.7112 5.54156 24.1041C5.54156 24.4969 5.85938 24.8137 6.25125 24.8137H22.35C22.7428 24.8137 23.0606 24.4959 23.0606 24.1041C23.0606 23.7122 22.7428 23.3934 22.35 23.3934Z" fill="#ABABAB"/>
<path d="M22.35 26.8378H6.25125C5.85938 26.8378 5.54156 27.1556 5.54156 27.5484C5.54156 27.9413 5.85938 28.2581 6.25125 28.2581H22.35C22.7428 28.2581 23.0606 27.9403 23.0606 27.5484C23.0606 27.1566 22.7428 26.8378 22.35 26.8378Z" fill="#ABABAB"/>
<path d="M22.6584 30.4434C22.3547 30.195 21.9075 30.2391 21.6591 30.5419L18.2691 34.6772L16.6978 33.1369C16.4175 32.8622 15.9684 32.8669 15.6938 33.1472C15.4191 33.4275 15.4238 33.8775 15.7041 34.1512L17.4638 35.8762C17.9578 36.3609 18.7613 36.3169 19.2009 35.7816L22.7588 31.4428C23.0072 31.1391 22.9631 30.6919 22.6603 30.4434H22.6584Z" fill="#ABABAB"/>
</g>
<defs>
<clipPath id="clip0_274_1685">
<rect width="37.5309" height="48" fill="white"/>
</clipPath>
</defs>
</svg>
