<svg width="16" height="16" viewBox="0 0 16 16" fill="none" xmlns="http://www.w3.org/2000/svg">
<g clip-path="url(#clip0_218_357)">
<path d="M15.958 6.06098C15.8528 5.72371 15.5653 5.48485 15.2266 5.45325L10.6078 5.01659L8.78272 0.569172C8.64808 0.242329 8.34123 0.0314941 7.99994 0.0314941C7.65865 0.0314941 7.3518 0.242329 7.21779 0.569172L5.39235 5.01659L0.773018 5.45325C0.434231 5.48583 0.147734 5.72437 0.0415893 6.06098C-0.0636161 6.39793 0.0334484 6.76811 0.289574 7.00176L3.78108 10.1881L2.75157 14.9066C2.67642 15.2533 2.80574 15.6124 3.08221 15.8203C3.23094 15.9328 3.40566 15.9888 3.581 15.9888C3.73161 15.9888 3.88221 15.9471 4.01717 15.8633L7.99994 13.3851L11.9821 15.8633C12.2742 16.0449 12.6415 16.0286 12.9174 15.8203C13.1941 15.6121 13.3235 15.2533 13.248 14.9066L12.2185 10.1881L15.71 7.00176C15.9661 6.76811 16.0635 6.39891 15.958 6.06098Z" fill="#E7E7E7"/>
</g>
<defs>
<clipPath id="clip0_218_357">
<rect width="16" height="16" fill="white"/>
</clipPath>
</defs>
</svg>
