<svg width="14" height="16" viewBox="0 0 14 16" fill="none" xmlns="http://www.w3.org/2000/svg">
<g clip-path="url(#clip0_218_352)">
<path d="M12.4825 1.2096H10.6232V0.585366C10.6232 0.253811 10.3451 0 9.98193 0C9.61874 0 9.34071 0.253811 9.34071 0.585366V1.2096H7.63079V0.585366C7.63079 0.253811 7.35276 0 6.98956 0C6.62637 0 6.34834 0.253811 6.34834 0.585366V1.2096H4.63842V0.585366C4.63842 0.253811 4.36039 0 3.9972 0C3.63401 0 3.35598 0.253811 3.35598 0.585366V1.2096H1.49618C0.662512 1.2096 0 1.81479 0 2.57546V14.6341C0 15.3952 0.662512 16 1.49618 16H12.5038C13.3375 16 14 15.3952 14 14.6341V2.57546C13.9787 1.81441 13.3162 1.2096 12.4825 1.2096ZM4.70229 6.90739H9.27642C9.63961 6.90739 9.91764 7.1612 9.91764 7.49276C9.91764 7.82431 9.63961 8.07812 9.27642 8.07812H4.70229C4.3391 8.07812 4.06107 7.82431 4.06107 7.49276C4.06107 7.1612 4.3391 6.90739 4.70229 6.90739ZM10.452 10.7317H3.52672C3.16353 10.7317 2.8855 10.4779 2.8855 10.1463C2.8855 9.81479 3.16353 9.56098 3.52672 9.56098H10.4733C10.8365 9.56098 11.1145 9.81479 11.1145 10.1463C11.1145 10.4779 10.8152 10.7317 10.452 10.7317Z" fill="#E7E7E7"/>
</g>
<defs>
<clipPath id="clip0_218_352">
<rect width="14" height="16" fill="white"/>
</clipPath>
</defs>
</svg>
