<svg width="8" height="8" viewBox="0 0 8 8" fill="none" xmlns="http://www.w3.org/2000/svg">
<mask id="path-1-inside-1_477_2055" fill="white">
<path d="M0 0H8V8H0V0Z"/>
</mask>
<path d="M1 0V-1H-1V0H1ZM8 9H9V7H8V9ZM0 8H-1C-1 8.55228 -0.552285 9 0 9L0 8ZM8 7H0V9H8V7ZM1 8V0H-1V8H1Z" fill="#888888" mask="url(#path-1-inside-1_477_2055)"/>
<path d="M1 0V-1H-1V0H1ZM8 9H9V7H8V9ZM0 8H-1C-1 8.55228 -0.552285 9 0 9L0 8ZM8 7H0V9H8V7ZM1 8V0H-1V8H1Z" fill="#888888" mask="url(#path-1-inside-1_477_2055)"/>
<path d="M1 0V-1H-1V0H1ZM8 9H9V7H8V9ZM0 8H-1C-1 8.55228 -0.552285 9 0 9L0 8ZM8 7H0V9H8V7ZM1 8V0H-1V8H1Z" fill="#888888" mask="url(#path-1-inside-1_477_2055)"/>
<path d="M1 0V-1H-1V0H1ZM8 9H9V7H8V9ZM0 8H-1C-1 8.55228 -0.552285 9 0 9L0 8ZM8 7H0V9H8V7ZM1 8V0H-1V8H1Z" fill="#888888" mask="url(#path-1-inside-1_477_2055)"/>
</svg>
