<svg width="14" height="14" viewBox="0 0 14 14" fill="none" xmlns="http://www.w3.org/2000/svg">
<g clip-path="url(#clip0_114_3044)">
<path d="M13.141 1.4H11.8412V0H10.5414V1.4H4.04245V0H2.74266V1.4H1.44286C1.05293 1.4 0.792969 1.68 0.792969 2.1V13.3C0.792969 13.72 1.05293 14 1.44286 14H13.141C13.5309 14 13.7909 13.72 13.7909 13.3V2.1C13.7909 1.68 13.5309 1.4 13.141 1.4ZM12.4911 12.6H2.09276V4.2H12.4911V12.6Z" fill="#333333"/>
<path d="M5.34109 9.1H4.04199V10.5H5.34109V9.1Z" fill="#333333"/>
<path d="M7.9407 9.1H6.6416V10.5H7.9407V9.1Z" fill="#333333"/>
<path d="M10.5403 9.1H9.24121V10.5H10.5403V9.1Z" fill="#333333"/>
<path d="M5.34109 6.3H4.04199V7.7H5.34109V6.3Z" fill="#333333"/>
<path d="M7.9407 6.3H6.6416V7.7H7.9407V6.3Z" fill="#333333"/>
<path d="M10.5403 6.3H9.24121V7.7H10.5403V6.3Z" fill="#333333"/>
</g>
<defs>
<clipPath id="clip0_114_3044">
<rect width="12.9979" height="14" fill="white" transform="translate(0.792969)"/>
</clipPath>
</defs>
</svg>
