<svg width="14" height="14" viewBox="0 0 14 14" fill="none" xmlns="http://www.w3.org/2000/svg">
<path d="M13.9633 5.28895C13.8712 4.99305 13.6197 4.78349 13.3233 4.75575L9.28197 4.37265L7.685 0.470765C7.56719 0.184013 7.2987 -0.000961304 7.00008 -0.000961304C6.70145 -0.000961304 6.43296 0.184013 6.3157 0.470765L4.71846 4.37265L0.676596 4.75575C0.380161 4.78434 0.129479 4.99362 0.0366038 5.28895C-0.0554498 5.58456 0.0294806 5.90934 0.253587 6.11432L3.30862 8.9098L2.40781 13.0496C2.34205 13.3537 2.4552 13.6688 2.69712 13.8512C2.82725 13.9498 2.98013 13.999 3.13355 13.999C3.26533 13.999 3.39711 13.9624 3.51519 13.8889L7.00008 11.7147L10.4844 13.8889C10.74 14.0482 11.0614 14.0339 11.3028 13.8512C11.545 13.6685 11.6581 13.3537 11.5921 13.0496L10.6913 8.9098L13.7463 6.11432C13.9704 5.90934 14.0556 5.58542 13.9633 5.28895V5.28895Z" fill="#E03B4F"/>
</svg>
