<svg width="15" height="15" viewBox="0 0 15 15" fill="none" xmlns="http://www.w3.org/2000/svg">
<g clip-path="url(#clip0_609_2314)">
<path d="M7.69609 6.35485C7.62908 6.18252 7.38535 6.18252 7.31834 6.35485L6.63714 8.09903C6.58519 8.23204 6.68327 8.37573 6.82601 8.37573H8.18599C8.32873 8.37573 8.42681 8.23252 8.37486 8.09951L7.69609 6.35485Z" fill="black"/>
<path d="M7.49952 0C3.49903 0 2.00343e-06 3.5 2.00343e-06 7.5C2.00343e-06 11.5 3.5 15 7.5 15C11.5 15 15 11.5 15 7.5C15 3.5 11.5 0 7.49952 0ZM10.0306 11.2335C9.75141 11.2335 9.50088 11.0607 9.40183 10.7995L9.14304 10.1184C9.05419 9.88447 8.83036 9.7301 8.58031 9.7301H6.42698C6.17984 9.7301 5.95747 9.88155 5.86667 10.1117L5.59186 10.8083C5.49039 11.065 5.24228 11.234 4.96601 11.234H4.96019C4.7383 11.234 4.53098 11.1248 4.40523 10.9417C4.27947 10.7587 4.25277 10.5257 4.3324 10.3189L6.54156 4.59223C6.69402 4.19612 7.07468 3.93495 7.49952 3.93495C7.92436 3.93495 8.30453 4.19612 8.45747 4.59223L10.6603 10.3189C10.7404 10.5262 10.7132 10.7592 10.5875 10.9422C10.4617 11.1252 10.2544 11.2345 10.032 11.2345L10.0306 11.2335Z" fill="black"/>
</g>
<defs>
<clipPath id="clip0_609_2314">
<rect width="15" height="15" fill="white"/>
</clipPath>
</defs>
</svg>
