<svg width="16" height="16" viewBox="0 0 16 16" fill="none" xmlns="http://www.w3.org/2000/svg">
<path fill-rule="evenodd" clip-rule="evenodd" d="M14.5062 9.73284C13.907 9.3878 13.5037 8.741 13.5037 8.00002C13.5037 7.25874 13.9073 6.6118 14.5068 6.26683C14.9384 6.01847 15.1187 5.49887 14.9338 5.03653C14.793 4.68458 14.6254 4.33837 14.4303 4.00047C14.2352 3.66256 14.0192 3.34436 13.7848 3.04644C13.4769 2.65514 12.9367 2.55152 12.5058 2.80112C11.9074 3.1478 11.1453 3.17384 10.5033 2.80322C9.8616 2.4327 9.50315 1.76002 9.50389 1.06866C9.50442 0.571542 9.14584 0.156262 8.65395 0.0843587C7.89713 -0.0262647 7.12213 -0.0291995 6.35331 0.0821242C5.86065 0.153461 5.50117 0.569507 5.50207 1.0673C5.5033 1.75912 5.14479 2.43246 4.50262 2.80322C3.86046 3.17398 3.09807 3.14776 2.49953 2.80078C2.06884 2.55112 1.52883 2.65441 1.22071 3.04541C0.739894 3.65556 0.354963 4.32823 0.0723513 5.039C-0.11131 5.5009 0.0690497 6.0191 0.499804 6.2672C1.09894 6.61224 1.50228 7.259 1.50228 8.00002C1.50228 8.7413 1.09864 9.38826 0.499204 9.73321C0.0676156 9.98157 -0.112744 10.5012 0.0721845 10.9635C0.21299 11.3155 0.380543 11.6617 0.575609 11.9996C0.770709 12.3375 0.986787 12.6557 1.22121 12.9536C1.5291 13.3449 2.06928 13.4485 2.50013 13.1989C3.09857 12.8522 3.86066 12.8262 4.50262 13.1968C5.14435 13.5673 5.5028 14.24 5.50207 14.9313C5.50154 15.4284 5.86012 15.8437 6.352 15.9156C7.10883 16.0263 7.88382 16.0292 8.65265 15.9179C9.1453 15.8465 9.50479 15.4305 9.50389 14.9327C9.50265 14.2409 9.86117 13.5675 10.5033 13.1968C11.1455 12.826 11.9079 12.8522 12.5064 13.1992C12.9371 13.4489 13.4771 13.3456 13.7852 12.9546C14.266 12.3444 14.6509 11.6718 14.9336 10.9611C15.1173 10.4992 14.9369 9.98093 14.5062 9.73284ZM8.86433 10.3579C7.56213 11.1097 5.89697 10.6635 5.14515 9.36135C4.39333 8.05915 4.83946 6.39399 6.1417 5.64217C7.44393 4.89036 9.10905 5.33652 9.86087 6.63872C10.6127 7.94092 10.1665 9.60604 8.86433 10.3579Z" fill="#444444"/>
</svg>
