<svg width="43" height="48" viewBox="0 0 43 48" fill="none" xmlns="http://www.w3.org/2000/svg">
<g clip-path="url(#clip0_299_2558)">
<path d="M42.8085 10.0813C42.8085 9.92911 42.7499 9.77951 42.6394 9.66764L33.1434 0.171707C33.0315 0.0598374 32.882 0.00260163 32.7298 0.00260163V0H12.385C11.2507 0 10.3272 0.922276 10.3272 2.05789V5.54927H7.21301C6.14244 5.54927 5.27089 6.5548 5.27089 7.79057V27.7502C2.11382 29.6637 0 33.133 0 37.0875C0 43.105 4.89496 48.0013 10.9125 48.0013C13.4192 48.0013 15.7307 47.1519 17.5753 45.7249H35.814C36.8846 45.7249 37.7548 44.7193 37.7548 43.4823V41.0289H40.7532C41.8875 41.0289 42.8111 40.1054 42.8111 38.9711V10.0813H42.8085ZM33.3138 1.99805L40.8117 9.49593H33.998C33.6208 9.49593 33.3125 9.18894 33.3125 8.81041V1.99935L33.3138 1.99805ZM6.44163 7.79057C6.44163 7.21041 6.79415 6.72 7.21301 6.72H10.3272V26.1919C8.94959 26.2647 7.63837 26.5951 6.44293 27.135V7.79057H6.44163ZM1.17073 37.0875C1.17073 31.7151 5.54016 27.3457 10.9125 27.3457C16.2849 27.3457 20.6543 31.7151 20.6543 37.0875C20.6543 42.4598 16.2836 46.8293 10.9125 46.8293C5.54146 46.8293 1.17073 42.4598 1.17073 37.0875ZM36.5828 43.481C36.5828 44.0611 36.2302 44.5528 35.8127 44.5528H18.8631C19.814 43.5395 20.575 42.3467 21.0875 41.0289H36.5828V43.481ZM40.7519 39.8569H21.4673C21.7002 38.9724 21.825 38.0423 21.825 37.0862C21.825 31.265 17.2436 26.495 11.4979 26.1893V2.05789C11.4979 1.56878 11.8959 1.17073 12.385 1.17073H32.1431V8.81171C32.1431 9.83545 32.9743 10.668 33.998 10.668H41.639V38.9711C41.639 39.4615 41.241 39.8582 40.7519 39.8582V39.8569ZM15.7333 7.49789C15.7333 7.17528 15.9961 6.91252 16.3187 6.91252H25.6312C25.9538 6.91252 26.2166 7.17528 26.2166 7.49789C26.2166 7.82049 25.9538 8.08325 25.6312 8.08325H16.3187C15.9961 8.08325 15.7333 7.82049 15.7333 7.49789ZM37.7548 13.5233C37.7548 13.8459 37.492 14.1086 37.1694 14.1086H16.3187C15.9961 14.1086 15.7333 13.8459 15.7333 13.5233C15.7333 13.2007 15.9961 12.9379 16.3187 12.9379H37.1694C37.492 12.9379 37.7548 13.2007 37.7548 13.5233ZM37.7548 18.8202C37.7548 19.1428 37.492 19.4055 37.1694 19.4055H16.3187C15.9961 19.4055 15.7333 19.1428 15.7333 18.8202C15.7333 18.4976 15.9961 18.2348 16.3187 18.2348H37.1694C37.492 18.2348 37.7548 18.4963 37.7548 18.8202ZM37.7548 24.1158C37.7548 24.4384 37.492 24.7011 37.1694 24.7011H16.3187C15.9961 24.7011 15.7333 24.4384 15.7333 24.1158C15.7333 23.7932 15.9961 23.5304 16.3187 23.5304H37.1694C37.492 23.5304 37.7548 23.7919 37.7548 24.1158ZM28.6998 30.4195C28.6998 31.0361 28.9444 31.7711 30.1125 31.7711C31.6826 31.7711 32.6972 32.761 32.6972 34.2933C32.6972 35.4875 31.8426 36.4904 30.6979 36.7493V37.587C30.6979 37.9096 30.4351 38.1724 30.1125 38.1724C29.7899 38.1724 29.5272 37.9096 29.5272 37.587V36.7493C28.3837 36.4904 27.5291 35.4875 27.5291 34.2933C27.5291 33.9707 27.7919 33.708 28.1145 33.708C28.4371 33.708 28.6998 33.9707 28.6998 34.2933C28.6998 35.0387 29.3346 35.6449 30.1125 35.6449C30.8904 35.6449 31.5265 35.0387 31.5265 34.2933C31.5265 33.6767 31.2819 32.9418 30.1125 32.9418C28.5424 32.9418 27.5291 31.9519 27.5291 30.4195C27.5291 29.2254 28.3837 28.2224 29.5272 27.9623V27.1259C29.5272 26.8033 29.7886 26.5405 30.1125 26.5405C30.4364 26.5405 30.6979 26.8033 30.6979 27.1259V27.9623C31.8413 28.2224 32.6972 29.2254 32.6972 30.4195C32.6972 30.7421 32.4345 31.0049 32.1119 31.0049C31.7893 31.0049 31.5265 30.7421 31.5265 30.4195C31.5265 29.6741 30.8917 29.0667 30.1125 29.0667C29.3333 29.0667 28.6998 29.6728 28.6998 30.4195ZM10.9125 28.826C6.35707 28.826 2.65106 32.532 2.65106 37.0875C2.65106 41.6429 6.35707 45.3489 10.9125 45.3489C15.468 45.3489 19.174 41.6429 19.174 37.0875C19.174 32.532 15.468 28.826 10.9125 28.826ZM14.9502 42.9112L14.638 42.3714C14.4754 42.0917 14.1177 41.9954 13.838 42.1567C13.5584 42.3193 13.4621 42.6771 13.6234 42.9567L13.9369 43.4992C13.1863 43.8556 12.3629 44.0819 11.4966 44.1535V43.5265C11.4966 43.2039 11.2338 42.9411 10.9112 42.9411C10.5886 42.9411 10.3259 43.2039 10.3259 43.5265V44.1535C9.45951 44.0819 8.6361 43.8556 7.88683 43.4992L8.20033 42.9567C8.36293 42.6771 8.26537 42.318 7.98569 42.1567C7.70602 41.9941 7.34829 42.0917 7.18569 42.3714L6.8735 42.9112C6.17756 42.4273 5.57138 41.8211 5.08748 41.1265L5.62862 40.8143C5.90829 40.653 6.00455 40.294 5.84325 40.0143C5.68065 39.7346 5.32293 39.6384 5.04325 39.7997L4.50081 40.1132C4.14439 39.3613 3.91805 38.5392 3.8478 37.6728H4.4735C4.7961 37.6728 5.05886 37.4101 5.05886 37.0875C5.05886 36.7649 4.7961 36.5021 4.4735 36.5021H3.8478C3.91935 35.6358 4.14569 34.8124 4.50081 34.0618L5.04325 34.3753C5.13561 34.4286 5.23577 34.4533 5.33463 34.4533C5.53626 34.4533 5.73398 34.348 5.84195 34.1606C6.00455 33.881 5.90699 33.5219 5.62732 33.3606L5.08618 33.0485C5.57008 32.3525 6.17626 31.7476 6.8722 31.2624L7.18439 31.8036C7.29236 31.9922 7.49008 32.0963 7.69171 32.0963C7.79057 32.0963 7.89203 32.0715 7.98309 32.0182C8.26276 31.8556 8.35902 31.4979 8.19772 31.2182L7.88423 30.6758C8.6335 30.3193 9.45821 30.093 10.3246 30.0215V30.6485C10.3246 30.9711 10.5873 31.2338 10.9099 31.2338C11.2325 31.2338 11.4953 30.9711 11.4953 30.6485V30.0215C12.3616 30.093 13.185 30.3193 13.9356 30.6758L13.6221 31.2182C13.4608 31.4979 13.5571 31.8569 13.8367 32.0182C13.9291 32.0715 14.0306 32.0976 14.1281 32.0976C14.3298 32.0976 14.5275 31.9922 14.6354 31.8049L14.9476 31.2637C15.6423 31.7476 16.2485 32.3538 16.7324 33.0498L16.1912 33.3619C15.9115 33.5246 15.8153 33.8823 15.9766 34.1619C16.0846 34.3493 16.2823 34.4546 16.4839 34.4546C16.5828 34.4546 16.6842 34.4286 16.7766 34.3753L17.319 34.0618C17.6754 34.8124 17.9018 35.6358 17.972 36.5021H17.3463C17.0224 36.5021 16.761 36.7649 16.761 37.0875C16.761 37.4101 17.0224 37.6728 17.3463 37.6728H17.972C17.9005 38.5392 17.6741 39.3626 17.319 40.1132L16.7766 39.7997C16.4956 39.6384 16.1379 39.7346 15.9766 40.0143C15.814 40.294 15.9115 40.653 16.1912 40.8143L16.7311 41.1265C16.2511 41.8224 15.6449 42.4273 14.9489 42.9112H14.9502ZM14.2023 37.0875C14.2023 37.4101 13.9395 37.6728 13.6169 37.6728H10.9125C10.5899 37.6728 10.3272 37.4101 10.3272 37.0875V33.0732C10.3272 32.7506 10.5899 32.4878 10.9125 32.4878C11.2351 32.4878 11.4979 32.7506 11.4979 33.0732V36.5021H13.6169C13.9408 36.5021 14.2023 36.7649 14.2023 37.0875Z" fill="#ABABAB"/>
</g>
<defs>
<clipPath id="clip0_299_2558">
<rect width="42.8098" height="48" fill="white"/>
</clipPath>
</defs>
</svg>
