<svg width="48" height="48" viewBox="0 0 48 48" fill="none" xmlns="http://www.w3.org/2000/svg">
<g clip-path="url(#clip0_299_2585)">
<mask id="mask0_299_2585" style="mask-type:luminance" maskUnits="userSpaceOnUse" x="0" y="0" width="48" height="48">
<path d="M47.875 0H0V48H47.875V0Z" fill="white"/>
</mask>
<g mask="url(#mask0_299_2585)">
<path d="M47.6362 29.2113C47.345 28.5088 46.665 28.0537 45.9038 28.0537H40.1825V2.34375C40.1825 1.1025 39.1725 0.09375 37.9325 0.09375H21.5737C20.3325 0.09375 19.3237 1.1025 19.3237 2.34375V8.70375C18.18 8.4375 16.9888 8.2975 15.765 8.2975C7.1075 8.2975 0.0625 15.3413 0.0625 24C0.0625 32.6587 7.10625 39.7025 15.765 39.7025C17.2725 39.7025 18.7313 39.4888 20.1112 39.09L28.4263 47.405C28.7812 47.7587 29.2513 47.9538 29.7525 47.9538C30.2537 47.9538 30.7238 47.7587 31.0788 47.405L47.23 31.2537C47.7675 30.7162 47.9275 29.9137 47.6362 29.21V29.2113ZM1.5625 24C1.5625 16.1688 7.93375 9.79625 15.765 9.79625C23.5963 9.79625 29.9675 16.1675 29.9675 24C29.9675 31.8325 23.5963 38.2025 15.765 38.2025C7.93375 38.2025 1.5625 31.8312 1.5625 24ZM46.17 30.1938L30.0187 46.345C29.9237 46.44 29.8113 46.455 29.7537 46.455C29.6962 46.455 29.5837 46.44 29.4888 46.345L21.6875 38.5425C27.42 36.2012 31.47 30.565 31.47 24C31.47 17.11 27.01 11.2425 20.825 9.1325V2.34375C20.825 1.93 21.1613 1.59375 21.575 1.59375H37.9338C38.3475 1.59375 38.6838 1.93 38.6838 2.34375V28.0537C38.6838 28.8812 39.3563 29.5537 40.1838 29.5537H45.905C46.1312 29.5537 46.2225 29.715 46.2513 29.785C46.28 29.855 46.33 30.0338 46.17 30.1938Z" fill="#ABABAB"/>
</g>
<path d="M15.0937 19.3825H16.4387C17.3137 19.3825 18.0262 20.0937 18.0262 20.97C18.0262 21.3837 18.3625 21.72 18.7762 21.72C19.19 21.72 19.5262 21.3837 19.5262 20.97C19.5262 19.2937 18.1825 17.925 16.5162 17.8838V17.165C16.5162 16.7513 16.18 16.415 15.7662 16.415C15.3525 16.415 15.0162 16.7513 15.0162 17.165V17.8838C13.3487 17.925 12.0062 19.2925 12.0062 20.97V21.6625C12.0062 23.365 13.3912 24.75 15.0937 24.75H16.4387C17.3137 24.75 18.0262 25.4625 18.0262 26.3375V27.03C18.0262 27.9063 17.3137 28.6175 16.4387 28.6175H15.0937C14.2187 28.6175 13.5062 27.9063 13.5062 27.03V26.9662C13.5062 26.5512 13.17 26.2162 12.7562 26.2162C12.3425 26.2162 12.0062 26.5512 12.0062 26.9662V27.03C12.0062 28.7063 13.35 30.075 15.0162 30.1162V30.835C15.0162 31.2487 15.3525 31.585 15.7662 31.585C16.18 31.585 16.5162 31.2487 16.5162 30.835V30.1162C18.1837 30.075 19.5262 28.7075 19.5262 27.03V26.3375C19.5262 24.635 18.1412 23.25 16.4387 23.25H15.0937C14.2187 23.25 13.5062 22.5375 13.5062 21.6625V20.97C13.5062 20.0937 14.2187 19.3825 15.0937 19.3825Z" fill="#ABABAB"/>
<path d="M15.7662 12.245C9.28373 12.245 4.01123 17.5175 4.01123 24C4.01123 30.4825 9.28373 35.755 15.7662 35.755C22.2487 35.755 27.5212 30.4825 27.5212 24C27.5212 17.5175 22.2487 12.245 15.7662 12.245ZM15.7662 34.255C10.1112 34.255 5.51123 29.655 5.51123 24C5.51123 18.345 10.1112 13.745 15.7662 13.745C21.4212 13.745 26.0212 18.345 26.0212 24C26.0212 29.655 21.4212 34.255 15.7662 34.255Z" fill="#ABABAB"/>
</g>
<defs>
<clipPath id="clip0_299_2585">
<rect width="47.875" height="48" fill="white"/>
</clipPath>
</defs>
</svg>
