<svg width="13" height="13" viewBox="0 0 13 13" fill="none" xmlns="http://www.w3.org/2000/svg">
<path d="M5.2328 10.46C6.39483 10.46 7.52368 10.0723 8.44057 9.35826L11.8996 12.8173C12.1579 13.0668 12.5696 13.0597 12.8192 12.8013C13.0626 12.5491 13.0626 12.1496 12.8192 11.8977L9.36017 8.43866C11.132 6.15761 10.7193 2.87197 8.43854 1.10015C6.15748 -0.672011 2.87183 -0.259275 1.10001 2.02178C-0.671818 4.30283 -0.259419 7.58847 2.02164 9.36029C2.93989 10.0737 4.06975 10.4607 5.2328 10.46ZM2.45334 2.45178C3.98849 0.916635 6.47677 0.916635 8.01192 2.45178C9.54673 3.98693 9.54707 6.4752 8.01192 8.01035C6.4771 9.54516 3.98849 9.54516 2.45368 8.01035C0.918863 6.48671 0.909721 4.00691 2.4337 2.4721C2.44013 2.46533 2.44691 2.45856 2.45368 2.45178H2.45334Z" fill="#E7E7E7"/>
</svg>
