<svg width="13" height="16" viewBox="0 0 13 16" fill="none" xmlns="http://www.w3.org/2000/svg">
<g clip-path="url(#clip0_474_1961)">
<path d="M8.71927 5.79672C8.51306 5.79672 8.3457 5.96459 8.3457 6.17143V13.2534C8.3457 13.4602 8.51306 13.6281 8.71927 13.6281C8.92547 13.6281 9.09283 13.4602 9.09283 13.2534V6.17143C9.09283 5.96459 8.92547 5.79672 8.71927 5.79672Z" fill="black"/>
<mask id="mask0_474_1961" style="mask-type:luminance" maskUnits="userSpaceOnUse" x="0" y="0" width="13" height="16">
<path d="M13 0H0V16H13V0Z" fill="white"/>
</mask>
<g mask="url(#mask0_474_1961)">
<path d="M4.31106 5.79672C4.10486 5.79672 3.9375 5.96459 3.9375 6.17143V13.2534C3.9375 13.4602 4.10486 13.6281 4.31106 13.6281C4.51727 13.6281 4.68463 13.4602 4.68463 13.2534V6.17143C4.68463 5.96459 4.51727 5.79672 4.31106 5.79672Z" fill="black"/>
<path d="M1.09815 4.76328V13.9953C1.09815 14.5409 1.29764 15.0535 1.64617 15.4211C1.99321 15.7898 2.47585 15.9992 2.98091 16H10.0487C10.5542 15.9992 11.0368 15.7898 11.3835 15.4211C11.732 15.0535 11.9315 14.5409 11.9315 13.9953V4.76328C12.6241 4.57892 13.0731 3.90745 12.9805 3.19475C12.8878 2.48206 12.2823 1.94885 11.5654 1.94848H9.65275V1.48009C9.65499 1.08628 9.49959 0.707822 9.22166 0.42979C8.94373 0.151757 8.56606 -0.00299721 8.17344 4.51507e-07H4.8562C4.46358 -0.00337191 4.08591 0.151757 3.80798 0.42979C3.53005 0.708197 3.37465 1.08628 3.37689 1.48009V1.94848H1.46424C0.747377 1.94848 0.142204 2.48169 0.0491867 3.19475C-0.043457 3.90782 0.405566 4.57892 1.09815 4.76328ZM10.0487 15.2506H2.98091C2.34212 15.2506 1.84528 14.7001 1.84528 13.9953V4.79625H11.1844V13.9953C11.1844 14.7001 10.6875 15.2506 10.0487 15.2506ZM4.12402 1.48009C4.1214 1.28487 4.19798 1.09714 4.3362 0.959626C4.47404 0.821733 4.66157 0.746043 4.85657 0.749415H8.17382C8.36844 0.746043 8.55597 0.821733 8.69419 0.959626C8.83241 1.09714 8.90861 1.28525 8.90637 1.48009V1.94848H4.12402V1.48009ZM1.46424 2.69789H11.5654C11.9367 2.69789 12.2378 2.99991 12.2378 3.37237C12.2378 3.74482 11.9367 4.04684 11.5654 4.04684H1.46424C1.09292 4.04684 0.791831 3.74482 0.791831 3.37237C0.791831 2.99991 1.09292 2.69789 1.46424 2.69789Z" fill="black"/>
</g>
<path d="M6.51516 5.79672C6.30896 5.79672 6.1416 5.96459 6.1416 6.17143V13.2534C6.1416 13.4602 6.30896 13.6281 6.51516 13.6281C6.72137 13.6281 6.88873 13.4602 6.88873 13.2534V6.17143C6.88873 5.96459 6.72137 5.79672 6.51516 5.79672Z" fill="black"/>
</g>
<defs>
<clipPath id="clip0_474_1961">
<rect width="13" height="16" fill="white"/>
</clipPath>
</defs>
</svg>
