<svg width="14" height="17" viewBox="0 0 14 17" fill="none" xmlns="http://www.w3.org/2000/svg">
<g clip-path="url(#clip0_31_3295)">
<mask id="mask0_31_3295" style="mask-type:luminance" maskUnits="userSpaceOnUse" x="0" y="0" width="14" height="17">
<path d="M13.2047 0.00463867H0V16.9999H13.2047V0.00463867Z" fill="white"/>
</mask>
<g mask="url(#mask0_31_3295)">
<path d="M0.0431263 9.07285C-0.0604402 8.17528 0.0258652 7.30877 0.260616 6.50786C1.04082 3.8462 3.48844 1.88879 6.39175 1.85427V0.114788C6.39175 0.018126 6.51258 -0.0336572 6.59198 0.0250305L10.1719 2.65562C10.2306 2.7005 10.2306 2.79025 10.1719 2.83168L6.59543 5.46227C6.51258 5.52096 6.3952 5.46917 6.3952 5.37251V3.63605C4.48613 3.66712 2.85668 4.84432 2.15588 6.50829C1.89006 7.13659 1.75542 7.83049 1.7934 8.5589C1.84518 9.56005 2.22147 10.4818 2.81525 11.2275C3.13286 11.6245 3.05691 12.2044 2.6461 12.5048C2.256 12.7913 1.71055 12.7119 1.4102 12.3322C0.674881 11.4139 0.184667 10.2954 0.0431263 9.07328V9.07285ZM10.3791 5.73111C10.9763 6.47334 11.3526 7.39853 11.4009 8.39967C11.4389 9.13154 11.3008 9.82544 11.0384 10.4503C10.3376 12.1143 8.70818 13.2949 6.79911 13.3225V11.5861C6.79911 11.4894 6.67828 11.4376 6.59888 11.4963L3.01894 14.1269C2.96025 14.1718 2.96025 14.2615 3.01894 14.303L6.59543 16.9335C6.67828 16.9922 6.79566 16.9405 6.79566 16.8438V15.1039C9.69897 15.0728 12.15 13.1154 12.9268 10.4503C13.1615 9.64937 13.2444 8.78287 13.1443 7.88529C13.0062 6.66321 12.516 5.54469 11.7807 4.6264C11.4769 4.24666 10.9349 4.16726 10.5448 4.45379C10.1374 4.75413 10.0615 5.33411 10.3791 5.73111Z" fill="white"/>
</g>
</g>
<defs>
<clipPath id="clip0_31_3295">
<rect width="13.2047" height="17" fill="white"/>
</clipPath>
</defs>
</svg>
