<svg width="16" height="12" viewBox="0 0 16 12" fill="none" xmlns="http://www.w3.org/2000/svg">
<path fill-rule="evenodd" clip-rule="evenodd" d="M8.8009 0.275417C9.16813 -0.0918056 9.76351 -0.0918058 10.1307 0.275417L12.1255 2.27019L14.1203 0.27543C14.4875 -0.0917931 15.0829 -0.091794 15.4501 0.275429C15.8173 0.642652 15.8173 1.23804 15.4501 1.60526L13.4553 3.60003L15.4501 5.59474C15.8173 5.96197 15.8173 6.55735 15.4501 6.92458C15.0828 7.2918 14.4875 7.2918 14.1202 6.92458L12.1255 4.92986L10.1308 6.92459C9.76356 7.29181 9.16817 7.29181 8.80095 6.92459C8.43373 6.55736 8.43373 5.96198 8.80095 5.59476L10.7957 3.60003L8.80091 1.60525C8.43368 1.23803 8.43368 0.64264 8.8009 0.275417ZM0.8 0.8C0.358172 0.8 0 1.15817 0 1.6C0 2.04183 0.358172 2.4 0.8 2.4H6.4C6.84183 2.4 7.2 2.04183 7.2 1.6C7.2 1.15817 6.84183 0.8 6.4 0.8H0.8ZM0.8 5.60001C0.358172 5.60001 0 5.95818 0 6.40001C0 6.84184 0.358172 7.20001 0.8 7.20001H6.4C6.84183 7.20001 7.2 6.84184 7.2 6.40001C7.2 5.95818 6.84183 5.60001 6.4 5.60001H0.8ZM0 11.0667C0 10.5512 0.417867 10.1333 0.933333 10.1333H15.0667C15.5821 10.1333 16 10.5512 16 11.0667C16 11.5821 15.5821 12 15.0667 12H0.933332C0.417867 12 0 11.5821 0 11.0667Z" fill="#777777"/>
</svg>
