<svg width="18" height="12" viewBox="0 0 18 12" fill="none" xmlns="http://www.w3.org/2000/svg">
<g clip-path="url(#clip0_291_668)">
<path d="M14.6302 0.421444L6.61828 8.18631L3.10229 4.46938C2.82041 4.16038 2.43258 3.98438 2.02678 3.98138C1.62098 3.97738 1.23032 4.14638 0.943702 4.44938C0.656143 4.75237 0.496282 5.16536 0.500066 5.59436C0.503849 6.02335 0.670331 6.43334 0.961675 6.73134L5.50209 11.5313C6.07532 12.1372 6.99759 12.1582 7.59542 11.5793L16.6763 2.7794C16.9723 2.49241 17.1483 2.09342 17.1653 1.66942C17.1823 1.24543 17.0404 0.831437 16.769 0.518442C16.4975 0.205448 16.1201 0.0194509 15.719 0.00145121C15.3179 -0.0165485 14.9263 0.133449 14.6302 0.420444V0.421444Z" fill="#7544F0"/>
</g>
<defs>
<clipPath id="clip0_291_668">
<rect width="18" height="12" fill="white"/>
</clipPath>
</defs>
</svg>
