<svg width="10" height="7" viewBox="0 0 10 7" fill="none" xmlns="http://www.w3.org/2000/svg">
<path fill-rule="evenodd" clip-rule="evenodd" d="M9.82294 0.235236C9.57904 -0.0323607 9.1836 -0.0323607 8.9397 0.235236L5.01895 4.53696L1.06671 0.200697C0.822813 -0.0668996 0.427376 -0.0668996 0.183477 0.200697C-0.0604201 0.468294 -0.060421 0.902154 0.183477 1.16975L4.36592 5.75859C4.39441 5.86511 4.44695 5.96553 4.52353 6.04956C4.71782 6.26272 5.00827 6.30608 5.24167 6.17964C5.32982 6.14697 5.41263 6.09209 5.48288 6.01502C5.53143 5.96175 5.57032 5.90188 5.59955 5.83805L9.82294 1.20429C10.0668 0.936693 10.0668 0.502833 9.82294 0.235236Z" fill="#333333"/>
</svg>
