<svg width="14" height="14" viewBox="0 0 14 14" fill="none" xmlns="http://www.w3.org/2000/svg">
<circle cx="7" cy="7" r="6.5" fill="white" stroke="#9B9B9B"/>
<g clip-path="url(#clip0_30_1610)">
<path d="M7.00028 3.11133C6.3815 3.11189 5.78824 3.34736 5.35069 3.76608C4.91315 4.18479 4.66709 4.75252 4.6665 5.34467C4.6665 5.50594 4.73345 5.6606 4.85261 5.77463C4.97177 5.88867 5.13339 5.95273 5.30191 5.95273C5.47043 5.95273 5.63204 5.88867 5.7512 5.77463C5.87037 5.6606 5.93731 5.50594 5.93731 5.34467C5.93722 5.14357 5.99945 4.94695 6.11613 4.77969C6.23281 4.61244 6.3987 4.48204 6.59282 4.40501C6.78694 4.32797 7.00057 4.30775 7.20669 4.3469C7.41282 4.38605 7.60219 4.48282 7.75085 4.62496C7.8995 4.76711 8.00078 4.94824 8.04186 5.14547C8.08295 5.34269 8.06199 5.54715 7.98165 5.73297C7.90131 5.9188 7.7652 6.07766 7.59051 6.18946C7.41583 6.30125 7.21043 6.36097 7.00028 6.36105C6.83172 6.36111 6.67008 6.42521 6.55089 6.53927C6.4317 6.65333 6.36471 6.80802 6.36465 6.96932V8.34199C6.36775 8.50132 6.43607 8.65313 6.55492 8.76476C6.67376 8.87639 6.83364 8.93893 7.00017 8.93893C7.1667 8.93893 7.32657 8.87639 7.44542 8.76476C7.56426 8.65313 7.63258 8.50132 7.63568 8.34199V7.49374C8.17787 7.34701 8.64628 7.01752 8.95444 6.5661C9.26259 6.11469 9.38969 5.57182 9.31225 5.03773C9.23481 4.50365 8.95808 4.0144 8.53313 3.66033C8.10819 3.30625 7.56373 3.11125 7.00028 3.11133Z" fill="#9B9B9B"/>
<path d="M7.00027 9.41113C6.82448 9.41113 6.65265 9.46101 6.50649 9.55446C6.36033 9.64792 6.24641 9.78074 6.17913 9.93615C6.11185 10.0916 6.09424 10.2626 6.12851 10.4276C6.16279 10.5925 6.24742 10.7441 6.3717 10.8631C6.49598 10.982 6.65433 11.063 6.82673 11.0959C6.99913 11.1287 7.17784 11.1119 7.34025 11.0476C7.50266 10.9832 7.64149 10.8742 7.73918 10.7344C7.83687 10.5946 7.88904 10.4301 7.88908 10.2619C7.88908 10.0363 7.79545 9.81994 7.62877 9.66039C7.46209 9.50085 7.23601 9.41119 7.00027 9.41113Z" fill="#9B9B9B"/>
</g>
<defs>
<clipPath id="clip0_30_1610">
<rect width="4.66667" height="8" fill="white" transform="translate(4.6665 3.11133)"/>
</clipPath>
</defs>
</svg>
