<svg width="14" height="16" viewBox="0 0 14 16" fill="none" xmlns="http://www.w3.org/2000/svg">
<g clip-path="url(#clip0_499_2634)">
<path d="M0 1.20222V14.7973C0.000467477 15.4609 0.566582 15.9991 1.26453 16H1.58334V0H1.26453C0.566582 0.000888889 0.000934954 0.538667 0 1.20222Z" fill="#B3B3B3"/>
<path fill-rule="evenodd" clip-rule="evenodd" d="M1.93359 0H12.6477C13.3943 0.000888889 13.9987 0.576444 13.9996 1.28578V14.7142C13.9992 15.424 13.3943 15.9991 12.6477 16H1.93359V0ZM11.405 10.9705L8.91345 4.398H7.29645L4.73345 11.119C4.71695 11.163 4.70504 11.2079 4.6977 11.2538C4.6922 11.2996 4.68945 11.339 4.68945 11.372C4.68945 11.4747 4.7087 11.5663 4.7472 11.647C4.78754 11.7277 4.8407 11.7973 4.9067 11.856C4.97454 11.9128 5.05154 11.9559 5.1377 11.9853C5.2257 12.0164 5.31829 12.032 5.41545 12.032C5.48329 12.032 5.55204 12.0219 5.6217 12.0018C5.69137 11.9834 5.75737 11.9541 5.8197 11.9138C5.88387 11.8734 5.94254 11.8221 5.9957 11.7598C6.04887 11.6974 6.09195 11.6232 6.12495 11.537L6.69145 10.085H9.46345L9.99145 11.4573C10.0336 11.5691 10.085 11.6617 10.1455 11.735C10.206 11.8065 10.2692 11.8633 10.3352 11.9055C10.403 11.9495 10.4718 11.9798 10.5415 11.9963C10.613 12.0128 10.6808 12.021 10.745 12.021C10.7853 12.021 10.8311 12.0164 10.8825 12.0073C10.9356 11.9999 10.9897 11.9862 11.0447 11.966C11.0997 11.9458 11.1538 11.9183 11.207 11.8835C11.262 11.8487 11.3105 11.8056 11.3527 11.7543C11.3949 11.7029 11.4288 11.6424 11.4545 11.5728C11.4801 11.5013 11.493 11.4188 11.493 11.3253C11.493 11.3014 11.4893 11.2739 11.482 11.2428C11.4765 11.2116 11.4691 11.1795 11.46 11.1465C11.4526 11.1135 11.4435 11.0814 11.4325 11.0503C11.4215 11.0191 11.4123 10.9925 11.405 10.9705ZM8.44045 7.115L9.04545 8.864H7.09845L7.73645 7.115C7.78229 6.9885 7.82445 6.86017 7.86295 6.73C7.90329 6.59983 7.93812 6.47883 7.96745 6.367C7.99679 6.25517 8.02062 6.15708 8.03895 6.07275C8.05912 5.98842 8.07195 5.927 8.07745 5.8885H8.11045C8.11779 5.927 8.13062 5.98842 8.14895 6.07275C8.16729 6.15525 8.1902 6.25242 8.2177 6.36425C8.24704 6.47608 8.28004 6.59708 8.3167 6.72725C8.3552 6.85742 8.39645 6.98667 8.44045 7.115Z" fill="#B3B3B3"/>
</g>
<defs>
<clipPath id="clip0_499_2634">
<rect width="14" height="16" fill="white"/>
</clipPath>
</defs>
</svg>
