<svg width="16" height="8" viewBox="0 0 16 8" fill="none" xmlns="http://www.w3.org/2000/svg">
<g clip-path="url(#clip0_87_1931)">
<mask id="mask0_87_1931" style="mask-type:luminance" maskUnits="userSpaceOnUse" x="0" y="0" width="16" height="8">
<path d="M0.666343 8L15.333 8L15.333 0L0.666343 0L0.666343 8Z" fill="white"/>
</mask>
<g mask="url(#mask0_87_1931)">
<path d="M7.99981 -6.62804e-05C8.17037 -6.62804e-05 8.34093 0.0649338 8.47093 0.195489L15.1376 6.86216C15.3981 7.12216 15.3981 7.54438 15.1376 7.80438C14.8776 8.06493 14.4554 8.06493 14.1954 7.80438L7.99981 1.60882L1.80426 7.80438C1.5437 8.06493 1.12204 8.06493 0.861482 7.80438C0.600926 7.54382 0.600926 7.12216 0.861482 6.8616L7.52815 0.194933C7.65815 0.0649333 7.8287 -0.000621796 7.99926 -0.000621796L7.99981 -6.62804e-05Z" fill="white"/>
</g>
</g>
<defs>
<clipPath id="clip0_87_1931">
<rect width="14.6667" height="8" fill="white" transform="matrix(-1 0 0 -1 15.333 8)"/>
</clipPath>
</defs>
</svg>
