<svg width="6" height="6" viewBox="0 0 6 6" fill="none" xmlns="http://www.w3.org/2000/svg">
<path fill-rule="evenodd" clip-rule="evenodd" d="M5.80627 0.193732C5.54796 -0.0645772 5.12916 -0.0645773 4.87085 0.193732L3 2.06458L1.12915 0.19374C0.870842 -0.0645694 0.452041 -0.0645695 0.193732 0.19374C-0.0645772 0.452049 -0.0645773 0.87085 0.193732 1.12916L2.06458 3L0.193751 4.87083C-0.0645578 5.12914 -0.0645579 5.54794 0.193751 5.80625C0.45206 6.06456 0.870862 6.06456 1.12917 5.80625L3 3.93542L4.87083 5.80626C5.12914 6.06457 5.54794 6.06457 5.80625 5.80626C6.06456 5.54795 6.06456 5.12915 5.80625 4.87084L3.93542 3L5.80627 1.12915C6.06458 0.870842 6.06458 0.452041 5.80627 0.193732Z" fill="#B7B7B7"/>
</svg>
