<svg width="19" height="16" viewBox="0 0 19 16" fill="none" xmlns="http://www.w3.org/2000/svg">
<g clip-path="url(#clip0_479_2067)">
<path d="M2 0C0.903333 0 0 0.903333 0 2V14C0 15.0967 0.903333 16 2 16H16.6667C17.7633 16 18.6667 15.0967 18.6667 14V4.66667C18.6667 3.57 17.7633 2.66667 16.6667 2.66667H9.65611L8.19889 0.824444C7.86722 0.405 7.34555 0 6.66611 0L2 0Z" fill="black"/>
<path d="M9.33333 6C9.15667 6 8.98722 6.07056 8.86222 6.19556C8.73722 6.32056 8.66667 6.49 8.66667 6.66667V8.66667H6.66667C6.49 8.66667 6.32056 8.73722 6.19556 8.86222C6.07056 8.98722 6 9.15667 6 9.33333C6 9.51 6.07056 9.67944 6.19556 9.80444C6.32056 9.92944 6.49 10 6.66667 10H8.66667V12C8.66667 12.1767 8.73722 12.3461 8.86222 12.4711C8.98722 12.5961 9.15667 12.6667 9.33333 12.6667C9.51 12.6667 9.67944 12.5961 9.80444 12.4711C9.92944 12.3461 10 12.1767 10 12V10H12C12.1767 10 12.3461 9.92944 12.4711 9.80444C12.5961 9.67944 12.6667 9.51 12.6667 9.33333C12.6667 9.15667 12.5961 8.98722 12.4711 8.86222C12.3461 8.73722 12.1767 8.66667 12 8.66667H10V6.66667C10 6.49 9.92944 6.32056 9.80444 6.19556C9.67944 6.07056 9.51 6 9.33333 6Z" fill="white"/>
</g>
<defs>
<clipPath id="clip0_479_2067">
<rect width="18.6667" height="16" fill="white"/>
</clipPath>
</defs>
</svg>
