<svg width="13" height="13" viewBox="0 0 13 13" fill="none" xmlns="http://www.w3.org/2000/svg">
<g clip-path="url(#clip0_114_3065)">
<path d="M7.58298 0.835146C5.64248 -0.54186 2.87156 -0.262124 1.09999 2.01911C-0.671915 4.30103 -0.259238 7.58708 2.02149 9.35964C2.9396 10.0732 4.0693 10.4603 5.23218 10.4596C6.39404 10.4596 7.52272 10.0719 8.43948 9.35761L11.898 12.8174C12.1563 13.067 12.5679 13.0599 12.8174 12.8015C13.0609 12.5492 13.0609 12.1496 12.8174 11.8976L9.35895 8.4378C9.35895 8.4378 8.92223 8.53432 8.62906 8.36871C8.33589 8.20311 8.26039 7.82279 8.26039 7.82279C8.26039 7.82279 8.24787 7.77199 8.01089 8.00905C6.4763 9.54421 3.98805 9.54421 2.45346 8.00905C0.918873 6.48507 0.909732 4.00504 2.43349 2.46954C2.43992 2.46276 2.44669 2.45599 2.45346 2.44922C3.98839 0.913716 6.29688 1.18126 7.57113 2.31375L7.58332 0.835146H7.58298Z" fill="black"/>
<path fill-rule="evenodd" clip-rule="evenodd" d="M9.92871 1.1C9.92871 0.768629 9.66008 0.5 9.32871 0.5C8.99734 0.5 8.72871 0.768629 8.72871 1.1V3.37111H6.6C6.26863 3.37111 6 3.63974 6 3.97111C6 4.30248 6.26863 4.57111 6.6 4.57111H8.72871V6.7C8.72871 7.03137 8.99734 7.3 9.32871 7.3C9.66008 7.3 9.92871 7.03137 9.92871 6.7V4.57111H12.2C12.5314 4.57111 12.8 4.30248 12.8 3.97111C12.8 3.63974 12.5314 3.37111 12.2 3.37111H9.92871V1.1Z" fill="black"/>
</g>
<defs>
<clipPath id="clip0_114_3065">
<rect width="13" height="13" fill="white"/>
</clipPath>
</defs>
</svg>
