<svg width="11" height="10" viewBox="0 0 11 10" fill="none" xmlns="http://www.w3.org/2000/svg">
<path fill-rule="evenodd" clip-rule="evenodd" d="M9.63463 0.336829C9.2834 -0.0148842 8.71394 -0.0148848 8.36271 0.336828L5.12213 3.58187L1.90785 0.363165C1.55662 0.0114522 0.987165 0.0114524 0.635935 0.363166C0.284705 0.714879 0.284705 1.28512 0.635935 1.63683L3.85021 4.85553L0.307856 8.40276C-0.043374 8.75448 -0.0433738 9.32472 0.307856 9.67643C0.659086 10.0281 1.22854 10.0281 1.57977 9.67643L5.12213 6.1292L8.69141 9.70339C9.04264 10.0551 9.6121 10.0551 9.96333 9.70339C10.3146 9.35167 10.3146 8.78143 9.96333 8.42972L6.39405 4.85553L9.63463 1.6105C9.98586 1.25878 9.98586 0.688542 9.63463 0.336829Z" fill="#333333"/>
</svg>
