<svg width="109" height="27" viewBox="0 0 109 27" fill="none" xmlns="http://www.w3.org/2000/svg">
<path d="M1.04492 18.5918C2.18424 19.5358 3.48958 20.0078 4.96094 20.0078C5.84635 20.0078 6.50716 19.8548 6.94336 19.5488C7.37956 19.2363 7.59766 18.8294 7.59766 18.3281C7.59766 17.8919 7.41536 17.4915 7.05078 17.127C6.6862 16.7624 5.80404 16.2806 4.4043 15.6816C3.21289 15.1478 2.34701 14.5488 1.80664 13.8848C1.27279 13.2142 1.00586 12.4297 1.00586 11.5312C1.00586 10.2357 1.50716 9.22331 2.50977 8.49414C3.51237 7.75846 4.82747 7.39062 6.45508 7.39062C7.91341 7.39062 9.0625 7.57292 9.90234 7.9375V10.6035C8.97135 9.96549 7.84831 9.64648 6.5332 9.64648C5.75846 9.64648 5.13021 9.79297 4.64844 10.0859C4.17318 10.3789 3.93555 10.7826 3.93555 11.2969C3.93555 11.707 4.10156 12.0814 4.43359 12.4199C4.76562 12.7585 5.54362 13.1979 6.76758 13.7383C8.17383 14.3503 9.15039 14.9948 9.69727 15.6719C10.2441 16.3424 10.5176 17.1465 10.5176 18.084C10.5176 19.4382 10.0326 20.4733 9.0625 21.1895C8.09896 21.8991 6.74479 22.2539 5 22.2539C3.37891 22.2539 2.06055 21.9837 1.04492 21.4434V18.5918ZM26.1523 22V13.0938C26.1523 12.4427 26.1914 11.4466 26.2695 10.1055H26.2109C26.0482 10.9258 25.8984 11.5117 25.7617 11.8633L21.9531 22H19.834L15.9766 11.9512C15.8789 11.6908 15.7292 11.0755 15.5273 10.1055H15.459C15.5306 11.1667 15.5664 12.319 15.5664 13.5625V22H13.0371V7.625H17.041L20.4004 16.5801C20.6803 17.3223 20.8659 17.9798 20.957 18.5527H21.0254C21.1686 17.9863 21.3704 17.3223 21.6309 16.5605L25.0195 7.625H28.9062V22H26.1523ZM44.5215 22H41.4844L40.3223 18.5625H34.9219L33.7891 22H30.752L36.0742 7.625H39.2871L44.5215 22ZM39.6289 16.3555L37.8711 11.1504C37.7995 10.9421 37.7246 10.5449 37.6465 9.95898H37.5781C37.526 10.3952 37.4447 10.7858 37.334 11.1309L35.5664 16.3555H39.6289ZM57.959 22H54.7363L52.4512 18.2012C51.9889 17.4329 51.5951 16.9284 51.2695 16.6875C50.944 16.4466 50.5924 16.3262 50.2148 16.3262H49.1992V22H46.416V7.625H51.2988C54.6191 7.625 56.2793 8.92057 56.2793 11.5117C56.2793 12.4622 55.9993 13.2891 55.4395 13.9922C54.8861 14.6888 54.0951 15.1836 53.0664 15.4766V15.5156C53.724 15.737 54.4499 16.4759 55.2441 17.7324L57.959 22ZM49.1992 9.79297V14.1484H50.8594C51.6146 14.1484 52.2168 13.9303 52.666 13.4941C53.1217 13.0514 53.3496 12.5013 53.3496 11.8438C53.3496 10.4766 52.5358 9.79297 50.9082 9.79297H49.1992ZM69.1309 9.93945H65.0195V22H62.2266V9.93945H58.125V7.625H69.1309V9.93945Z" fill="#EDEDED"/>
<path d="M77.4414 11.9473L77.0117 14.9648H76.6504C76.5983 14.1836 76.3574 13.5684 75.9277 13.1191C75.5046 12.6699 75.0488 12.4453 74.5605 12.4453C74.2611 12.4453 74.0137 12.5332 73.8184 12.709C73.623 12.8848 73.5254 13.0964 73.5254 13.3438C73.5254 13.5521 73.5677 13.7474 73.6523 13.9297C73.737 14.112 73.9258 14.3594 74.2188 14.6719C75.2474 15.7786 75.8724 16.5404 76.0938 16.957C76.3151 17.3737 76.4258 17.8197 76.4258 18.2949C76.4258 18.8092 76.2956 19.2975 76.0352 19.7598C75.7747 20.2155 75.3841 20.5833 74.8633 20.8633C74.349 21.1367 73.8118 21.2734 73.252 21.2734C72.8743 21.2734 72.4089 21.1986 71.8555 21.0488C71.4909 20.9447 71.2174 20.8926 71.0352 20.8926C70.8724 20.8926 70.7454 20.9186 70.6543 20.9707C70.5632 21.0163 70.4622 21.1172 70.3516 21.2734H69.9902L70.4688 18.0215H70.7812C71.0091 18.8092 71.2207 19.3724 71.416 19.7109C71.6178 20.043 71.8848 20.3099 72.2168 20.5117C72.5488 20.707 72.8678 20.8047 73.1738 20.8047C73.5319 20.8047 73.8281 20.694 74.0625 20.4727C74.2969 20.2448 74.4141 19.9746 74.4141 19.6621C74.4141 19.3561 74.3359 19.0599 74.1797 18.7734C74.0299 18.487 73.6784 18.041 73.125 17.4355C72.3633 16.6087 71.862 15.9707 71.6211 15.5215C71.4518 15.196 71.3672 14.8249 71.3672 14.4082C71.3672 13.7051 71.6211 13.1191 72.1289 12.6504C72.6432 12.1816 73.3626 11.9473 74.2871 11.9473C74.6908 11.9473 75.1855 12.0189 75.7715 12.1621C76.0645 12.2337 76.2988 12.2695 76.4746 12.2695C76.7285 12.2695 76.9336 12.1621 77.0898 11.9473H77.4414ZM83.1055 11.9473L81.2109 18.5879C81.1198 18.8939 81.0742 19.1055 81.0742 19.2227C81.0742 19.2812 81.097 19.3268 81.1426 19.3594C81.1947 19.4115 81.2565 19.4375 81.3281 19.4375C81.6276 19.4375 82.028 19.1706 82.5293 18.6367C83.2454 17.862 83.9974 16.7487 84.7852 15.2969L85.6738 12.3086L88.1445 12.2207L86.2695 18.666C86.1133 19.2129 86.0352 19.5254 86.0352 19.6035C86.0352 19.6556 86.0579 19.7109 86.1035 19.7695C86.1556 19.8216 86.2077 19.8477 86.2598 19.8477C86.3509 19.8477 86.4388 19.8086 86.5234 19.7305C86.7578 19.5417 87.0671 19.1608 87.4512 18.5879L87.7832 18.8223C86.8783 20.4564 85.8822 21.2734 84.7949 21.2734C84.3913 21.2734 84.0723 21.1725 83.8379 20.9707C83.61 20.7624 83.4961 20.4922 83.4961 20.1602C83.4961 19.8086 83.5775 19.3626 83.7402 18.8223L84.2188 17.1719C83.3724 18.4023 82.7572 19.2324 82.373 19.6621C81.7871 20.3066 81.2923 20.7363 80.8887 20.9512C80.4915 21.166 80.1107 21.2734 79.7461 21.2734C79.401 21.2734 79.1016 21.1465 78.8477 20.8926C78.6003 20.6387 78.4766 20.3164 78.4766 19.9258C78.4766 19.5938 78.5579 19.1478 78.7207 18.5879L79.8242 14.6816C80.0065 14.0436 80.0977 13.6139 80.0977 13.3926C80.0977 13.2949 80.0716 13.2103 80.0195 13.1387C79.9674 13.0605 79.8796 13.002 79.7559 12.9629C79.6387 12.9173 79.4173 12.8945 79.0918 12.8945L79.1895 12.5234L82.5195 11.9473H83.1055ZM93.418 7.45508C93.8216 7.45508 94.1602 7.59505 94.4336 7.875C94.7135 8.15495 94.8535 8.49349 94.8535 8.89062C94.8535 9.28776 94.7135 9.6263 94.4336 9.90625C94.1536 10.1862 93.8151 10.3262 93.418 10.3262C93.0273 10.3262 92.6921 10.1862 92.4121 9.90625C92.1322 9.6263 91.9922 9.28776 91.9922 8.89062C91.9922 8.49349 92.1289 8.15495 92.4023 7.875C92.6823 7.59505 93.0208 7.45508 93.418 7.45508ZM94.0234 11.9473L92.0215 18.8906C91.9108 19.2878 91.8555 19.5482 91.8555 19.6719C91.8555 19.7435 91.8848 19.8118 91.9434 19.877C92.002 19.9355 92.0638 19.9648 92.1289 19.9648C92.2396 19.9648 92.3503 19.916 92.4609 19.8184C92.7539 19.5775 93.1055 19.1413 93.5156 18.5098L93.8477 18.7051C92.8646 20.4173 91.8197 21.2734 90.7129 21.2734C90.2897 21.2734 89.9512 21.1562 89.6973 20.9219C89.4499 20.681 89.3262 20.3783 89.3262 20.0137C89.3262 19.7728 89.3815 19.4668 89.4922 19.0957L90.8496 14.4277C90.9798 13.9785 91.0449 13.64 91.0449 13.4121C91.0449 13.2689 90.9831 13.1419 90.8594 13.0312C90.7357 12.9206 90.5664 12.8652 90.3516 12.8652C90.2539 12.8652 90.1367 12.8685 90 12.875L90.127 12.4844L93.4375 11.9473H94.0234ZM100.225 9.56445L99.4434 12.2207H100.723L100.381 13.3438H99.1211L97.4902 19.0078C97.3861 19.3594 97.334 19.6263 97.334 19.8086C97.334 19.8932 97.3633 19.9681 97.4219 20.0332C97.4805 20.0918 97.5456 20.1211 97.6172 20.1211C97.7279 20.1211 97.8418 20.0755 97.959 19.9844C98.2585 19.7565 98.6068 19.3594 99.0039 18.793L99.3457 19.0078C98.8965 19.7891 98.4017 20.362 97.8613 20.7266C97.321 21.0911 96.7904 21.2734 96.2695 21.2734C95.8268 21.2734 95.4818 21.1628 95.2344 20.9414C94.9935 20.7135 94.873 20.4271 94.873 20.082C94.873 19.7044 94.9577 19.2194 95.127 18.627L96.6699 13.3438H95.3418L95.5371 12.6211C96.3704 12.3151 97.0736 11.957 97.6465 11.5469C98.2194 11.1367 98.9095 10.4759 99.7168 9.56445H100.225ZM103.184 17.3379C103.125 17.7611 103.096 18.1094 103.096 18.3828C103.096 18.8711 103.236 19.2617 103.516 19.5547C103.802 19.8477 104.183 19.9941 104.658 19.9941C105.114 19.9941 105.57 19.8835 106.025 19.6621C106.488 19.4408 107.021 19.0534 107.627 18.5L107.92 18.7637C107.171 19.6686 106.442 20.3132 105.732 20.6973C105.023 21.0814 104.238 21.2734 103.379 21.2734C102.292 21.2734 101.54 21.013 101.123 20.4922C100.706 19.9714 100.498 19.3691 100.498 18.6855C100.498 17.6178 100.807 16.5501 101.426 15.4824C102.051 14.4147 102.897 13.5586 103.965 12.9141C105.039 12.2695 106.117 11.9473 107.197 11.9473C107.744 11.9473 108.158 12.0775 108.438 12.3379C108.717 12.5983 108.857 12.9271 108.857 13.3242C108.857 13.7995 108.721 14.2617 108.447 14.7109C108.07 15.3229 107.594 15.8177 107.021 16.1953C106.449 16.5664 105.807 16.8496 105.098 17.0449C104.622 17.1751 103.984 17.2728 103.184 17.3379ZM103.271 16.8301C103.844 16.7454 104.287 16.6315 104.6 16.4883C104.919 16.3385 105.228 16.1042 105.527 15.7852C105.833 15.4596 106.097 15.0527 106.318 14.5645C106.54 14.0697 106.65 13.6074 106.65 13.1777C106.65 12.9954 106.598 12.8522 106.494 12.748C106.396 12.6439 106.27 12.5918 106.113 12.5918C105.801 12.5918 105.449 12.8099 105.059 13.2461C104.342 14.0404 103.747 15.235 103.271 16.8301Z" fill="#EDEDED"/>
</svg>
