<svg width="15" height="14" viewBox="0 0 15 14" fill="none" xmlns="http://www.w3.org/2000/svg">
<g clip-path="url(#clip0_30_1554)">
<path d="M8.17062 0.899027C6.07972 -0.583368 3.09401 -0.282223 1.18513 2.17361C-0.724118 4.63017 -0.279454 8.16772 2.17805 10.0759C3.16733 10.8441 4.3846 11.2608 5.63761 11.2601C6.88953 11.2601 8.10569 10.8427 9.09351 10.0738L12.8201 13.7983C13.0984 14.067 13.542 14.0594 13.8108 13.7812C14.0731 13.5096 14.0731 13.0794 13.8108 12.8081L10.0842 9.08355C10.0842 9.08355 9.61369 9.18746 9.29779 9.00918C8.98189 8.8309 8.90055 8.42147 8.90055 8.42147C8.90055 8.42147 8.88705 8.36678 8.6317 8.62199C6.97817 10.2746 4.29705 10.2746 2.64351 8.62199C0.989973 6.98137 0.980124 4.31152 2.62199 2.6585C2.62892 2.65121 2.63622 2.64392 2.64351 2.63663C4.29741 0.98361 6.78483 1.27163 8.15786 2.4908L8.17099 0.899027H8.17062Z" fill="black"/>
<path d="M12.9609 3.62144H10.7846V1.44671C10.7846 1.02999 10.4468 0.692383 10.0299 0.692383H9.8621C9.64579 0.692383 9.451 0.783529 9.31348 0.929362C9.18581 1.06462 9.10774 1.24655 9.10774 1.44671V3.62181H6.93148C6.51454 3.62181 6.17676 3.95941 6.17676 4.37613V4.54384C6.17676 4.96056 6.51454 5.29816 6.93148 5.29816H9.10774V7.47326C9.10774 7.88998 9.44553 8.22758 9.86247 8.22758H10.0303C10.1459 8.22758 10.255 8.20097 10.3527 8.1543C10.6081 8.03326 10.785 7.77404 10.785 7.47326V5.29816H12.9613C13.051 5.29816 13.1371 5.28248 13.2166 5.25368C13.5077 5.14905 13.716 4.87087 13.716 4.54384V4.37613C13.716 3.95941 13.3782 3.62181 12.9613 3.62181L12.9609 3.62144Z" fill="black"/>
</g>
<defs>
<clipPath id="clip0_30_1554">
<rect width="14.0075" height="13.9949" fill="white"/>
</clipPath>
</defs>
</svg>
