<svg width="15" height="14" viewBox="0 0 15 14" fill="none" xmlns="http://www.w3.org/2000/svg">
<g clip-path="url(#clip0_30_1523)">
<path d="M13.3071 1.4H11.9063V0H10.5056V1.4H3.50186V0H2.10112V1.4H0.700373C0.280149 1.4 0 1.68 0 2.1V13.3C0 13.72 0.280149 14 0.700373 14H13.3071C13.7273 14 14.0075 13.72 14.0075 13.3V2.1C14.0075 1.68 13.7273 1.4 13.3071 1.4ZM12.6067 12.6H1.40075V4.2H12.6067V12.6Z" fill="#333333"/>
<path d="M4.90189 9.1001H3.50189V10.5001H4.90189V9.1001Z" fill="#333333"/>
<path d="M7.70335 9.1001H6.30334V10.5001H7.70335V9.1001Z" fill="#333333"/>
<path d="M10.5049 9.1001H9.10486V10.5001H10.5049V9.1001Z" fill="#333333"/>
<path d="M4.90189 6.30005H3.50189V7.70005H4.90189V6.30005Z" fill="#333333"/>
<path d="M7.70335 6.30005H6.30334V7.70005H7.70335V6.30005Z" fill="#333333"/>
<path d="M10.5049 6.30005H9.10486V7.70005H10.5049V6.30005Z" fill="#333333"/>
</g>
<defs>
<clipPath id="clip0_30_1523">
<rect width="14.0075" height="14" fill="white"/>
</clipPath>
</defs>
</svg>
