<svg width="11" height="7" viewBox="0 0 11 7" fill="none" xmlns="http://www.w3.org/2000/svg">
<path fill-rule="evenodd" clip-rule="evenodd" d="M9.82245 0.235236C9.57855 -0.0323607 9.18311 -0.0323607 8.93921 0.235236L5.01846 4.53696L1.06622 0.200697C0.822325 -0.0668996 0.426888 -0.0668996 0.182989 0.200697C-0.0609083 0.468294 -0.0609093 0.902154 0.182989 1.16975L4.36543 5.75859C4.39392 5.86511 4.44646 5.96553 4.52305 6.04956C4.71733 6.26272 5.00778 6.30608 5.24118 6.17964C5.32933 6.14697 5.41214 6.09209 5.48239 6.01502C5.53095 5.96175 5.56984 5.90188 5.59906 5.83805L9.82245 1.20429C10.0663 0.936693 10.0663 0.502833 9.82245 0.235236Z" fill="#333333"/>
</svg>
