<svg width="11" height="7" viewBox="0 0 11 7" fill="none" xmlns="http://www.w3.org/2000/svg">
<path fill-rule="evenodd" clip-rule="evenodd" d="M10.7989 0.263531C10.5307 -0.036168 10.096 -0.0361686 9.82785 0.263531L5.51728 5.08134L1.17204 0.224773C0.903896 -0.0749255 0.469147 -0.0749254 0.201002 0.224774C-0.0671435 0.524472 -0.0671435 1.01038 0.201002 1.31008L4.7994 6.44959C4.83073 6.56885 4.88848 6.68128 4.97265 6.77536C5.18644 7.01431 5.50613 7.06275 5.76285 6.92068C5.85946 6.88405 5.95022 6.8227 6.02724 6.73661C6.08052 6.67707 6.12322 6.61016 6.15532 6.53883L10.7989 1.34884C11.067 1.04914 11.067 0.56323 10.7989 0.263531Z" fill="#E7E7E7"/>
</svg>
