<svg width="15" height="14" viewBox="0 0 15 14" fill="none" xmlns="http://www.w3.org/2000/svg">
<g clip-path="url(#clip0_30_1572)">
<path d="M5.64081 11.2641C6.89273 11.2641 8.1089 10.8467 9.09672 10.0778L12.8233 13.8024C13.1016 14.0711 13.5452 14.0634 13.814 13.7852C14.0763 13.5136 14.0763 13.0834 13.814 12.8121L10.0875 9.08757C11.9963 6.63137 11.5517 3.09346 9.09453 1.1856C6.63702 -0.722632 3.09721 -0.278206 1.18833 2.17799C-0.720551 4.63419 -0.276252 8.1721 2.18126 10.08C3.17053 10.8481 4.3878 11.2649 5.64081 11.2641ZM2.64635 2.64101C4.30025 0.987991 6.98101 0.987991 8.63491 2.64101C10.2884 4.29403 10.2888 6.97335 8.63491 8.62637C6.98137 10.279 4.30025 10.279 2.64671 8.62637C0.993176 6.98575 0.983326 4.31554 2.62519 2.66289C2.63212 2.65559 2.63942 2.6483 2.64671 2.64101H2.64635Z" fill="black"/>
</g>
<defs>
<clipPath id="clip0_30_1572">
<rect width="14.0075" height="14" fill="white" transform="translate(0.00317383)"/>
</clipPath>
</defs>
</svg>
